<?xml version="1.0" encoding="UTF-8" standalone="no"?><svg xmlns:svg="http://www.w3.org/2000/svg" xmlns="http://www.w3.org/2000/svg" version="1.1" style="overflow:visible" viewBox="-250 -250 500 500" height="500px" width="500px"><rect fill-opacity="0" fill="rgb(0,0,0)" height="500" width="500" y="-250" x="-250" /><svg version="1.1" y="-250" x="-250" viewBox="-250 -250 500 500" height="500px" width="500px" style="overflow:visible"><g transform="rotate(0,0,0)" stroke-linejoin="round" fill="#fff"><path stroke-linecap="round" stroke-linejoin="round" stroke-width="0" stroke-opacity="0" stroke="rgb(0,0,0)" fill="rgb(26,115,232)" d="m195 0a195 195 0 0 1-195 195a195 195 0 0 1-195-195a195 195 0 0 1 195-195a195 195 0 0 1 195 195z" /></g></svg><svg version="1.1" y="-250" x="-250" viewBox="-250 -250 500 500" height="500px" width="500px" style="overflow:visible"><g transform="rotate(0,0,0)" stroke-linejoin="round" fill="#fff"><path stroke-linecap="butt" stroke-linejoin="round" stroke-width="0" stroke-opacity="0" stroke="rgb(0,0,0)" fill="rgb(255,255,255)" d="m-44.784-121.884v72.131h-54.923l99.707 111.79l99.707-111.79h-54.923v-72.131z" /><path stroke-linecap="butt" stroke-linejoin="round" stroke-width="0" stroke-opacity="0" stroke="rgb(0,0,0)" fill="rgb(255,255,255)" d="m-99.704001 86.166h199.41v35.717h-199.41z" /></g></svg></svg>