<svg xmlns="http://www.w3.org/2000/svg" width="848" height="689.102" viewBox="0 0 848 689.102">
  <g id="map" transform="translate(-8 -15.49)">
    <path id="パス_87" data-name="パス 87" d="M168.856,171.412a45.748,45.748,0,0,1-45.58-47.7c0-25.44,21.2-46.64,46.64-46.64s46.64,21.2,46.64,46.64a46.5,46.5,0,0,1-13.78,32.86C193.236,166.112,181.576,171.412,168.856,171.412Zm-45.58-147.34c-23.32,8.48-41.34,26.5-53,47.7-14.84,28.62-16.96,61.48-5.3,91.16l50.88,110.24,33.92,69.96c3.18,7.42,10.6,11.66,19.08,11.66s15.9-4.24,19.08-11.66l33.92-69.96,50.88-109.18c5.3-12.72,7.42-26.5,7.42-40.28C280.156,49.512,203.836-6.668,123.276,24.072Z" transform="translate(475.144 0)" fill="rgba(40,62,174,0.8)"/>
    <path id="パス_88" data-name="パス 88" d="M410.8,536.48l-169.6-84.8V106.12l169.6,84.8Zm-212-84.8L71.6,515.28V169.72l127.2-63.6ZM786.04,95.52h0l-26.5,57.24,32.86,16.96V515.28l-127.2-63.6V310.7H622.8V451.68l-169.6,84.8V190.92l75.26-38.16-26.5-57.24L432,130.5,220,24.5,8,130.5V618.1l212-106,212,106,212-106,212,106V130.5Z" transform="translate(0 86.492)" fill="rgba(40,62,174,0.8)"/>
  </g>
</svg>
