<svg xmlns="http://www.w3.org/2000/svg" xmlns:xlink="http://www.w3.org/1999/xlink" width="282" height="282" viewBox="0 0 282 282">
  <defs>
    <clipPath id="clip-path">
      <circle id="楕円形_19" data-name="楕円形 19" cx="141" cy="141" r="141" transform="translate(-19988 -22335)" fill="#1a3d03" stroke="#707070" stroke-width="1"/>
    </clipPath>
  </defs>
  <g id="マスクグループ_20" data-name="マスクグループ 20" transform="translate(19988 22335)" clip-path="url(#clip-path)">
    <path id="keizi" d="M235.257,121.128c-.525-.525-1.312-1.05-1.837-1.575V69.164a10.529,10.529,0,0,0-10.5-10.5H33.964a10.529,10.529,0,0,0-10.5,10.5V195.136a10.529,10.529,0,0,0,10.5,10.5H222.922a10.529,10.529,0,0,0,10.5-10.5V145.272l1.837-1.837a15.715,15.715,0,0,0,4.724-11.023A14.857,14.857,0,0,0,235.257,121.128Zm-17.584,68.76H39.213V74.413h178.46v43.3a24.649,24.649,0,0,0-4.724,3.149l-5.774,6.036V84.911H49.711V179.39H207.175V169.154a16.68,16.68,0,0,0,5.774-3.674l4.724-4.462Zm-83.456-52.751c1.575,7.086,2.362,11.285-1.312,13.909s-7.873,0-9.973-1.575c-15.484-9.973-38.054-32.543-38.841-33.33a5.2,5.2,0,0,1,7.348-7.348c.262.262,18.108,17.846,32.018,28.606a143.756,143.756,0,0,1-2.887-17.584c-1.05-8.661,2.887-11.285,5.249-12.335,4.2-1.575,11.023-.525,28.606,16.534,8.923,8.661,18.633,19.683,21.52,24.669a4.938,4.938,0,0,1-1.837,7.086,5.064,5.064,0,0,1-2.624.787,4.871,4.871,0,0,1-4.461-2.624c-7.086-11.547-28.344-30.968-35.954-35.43A141.541,141.541,0,0,0,134.217,137.137Zm93.691-1.312L205.6,158.132a5.2,5.2,0,0,1-7.348-7.348l22.307-22.307a5.2,5.2,0,0,1,7.348,7.348Z" transform="translate(-19978.723 -22326.148)" fill="#4c5a00"/>
  </g>
</svg>
