<!--?xml version="1.0" encoding="utf-8"?-->
<!-- Generator: Adobe Illustrator 22.1.0, SVG Export Plug-In . SVG Version: 6.00 Build 0)  -->
<svg version="1.1" id="_x32_" xmlns="http://www.w3.org/2000/svg" xmlns:xlink="http://www.w3.org/1999/xlink" x="0px" y="0px" viewBox="0 0 323.038 800" style="width: 202px;" xml:space="preserve">
<style type="text/css">
	.st0{fill:#040000;}
</style>
<g>
	<path class="st0" d="M287.559,2.035C213.196,89.564,134.486,102.802,82.968,94.118c-38.439-6.484-64.744-25.793-64.744-25.793
		c-2.253-1.063-2.145,1.594,2.428,5.622c36.942,25.323,63.895,34.709,88.437,35.654c-1.761,0.682-3.311,1.362-4.189,1.932
		c-2.072,1.331-9.419,5.754-11.984,11.376c-2.544,5.603-3.103,12.895-3.103,12.895s-5.567-5.704-7.891-6.069
		c-2.312-0.358-3.256,0.22-4.384,0.802c-1.135,0.584-5.669,1.951-5.613,3.664c-1.809,2.865-1.025,3.62-1.025,3.62
		s-1.853,1.529-0.463,3.42c1.394,1.89,9.305,4.912,9.144,6.054c-0.151,1.135-4.241,4.549-3.455,5.309
		c0.784,0.757,1.083,1.536,1.083,1.536s-0.882,0.237-2.348,1.75c-1.466,1.509-5.306,5.459-4.34,6.211
		c0.969,0.756,0.081,2.446,0.081,2.446s-1.135-0.193-1.669,0.743c-0.54,0.937-0.896,1.502-0.316,1.875
		c0.581,0.381,1.023,2.632,0.108,3.38c-0.912,0.747-5.166,8.189-5.107,9.867c0.056,1.678,0.454,2.43,0.454,2.43
		s1.296,5.234,8.928,8.898c7.661,3.677,17.003,6.556,22.775,6.853c2.439,0.122,7.101,0.444,11.678,0.773
		c6.175,3.365,13.283,3.683,13.283,3.683s7.646-0.025,13.447-3.275c4.076-0.131,8.011-0.25,10.22-0.28
		c6.008-0.078,22.921-3.126,31.014-6.678c8.157-3.579,9.31-9.042,9.31-9.042s0.4-0.778,0.371-2.543
		c-0.024-1.763-5.098-9.662-6.143-10.454c-1.043-0.797-0.669-3.144-0.054-3.534c0.608-0.392,0.185-0.982-0.444-1.971
		c-0.637-0.984-1.873-0.79-1.873-0.79s-1.054-1.777-0.036-2.559c1.016-0.782-3.375-4.926-5.043-6.5
		c-1.671-1.576-6.184-1.974-6.184-1.974s0,0,0.804-0.786c0.804-0.783-3.754-4.315-3.98-5.493c-0.228-1.18,8.116-4.351,9.519-6.331
		c1.406-1.984-0.68-3.552-0.68-3.552s0.813-0.793-1.297-3.75c-0.032-1.777-4.989-3.124-6.227-3.705
		c-1.239-0.583-2.27-1.169-4.716-0.748c-2.439,0.412-8.013,6.349-8.013,6.349s-0.961-7.455-3.918-13.129
		c-2.949-5.666-10.761-9.945-12.947-11.229c-1.19-0.698-3.489-1.534-5.914-2.32c13.853-1.712,27.544-5.774,42.779-10.238
		C241.69,77.754,291.233,0.112,287.559,2.035z M77.388,141.121c-0.752,0.383-2.088,0.388-2.79-0.653
		c-0.699-1.045,0.806-1.718,1.277-1.91c0.473-0.189,2.523,0.422,2.61,1.03C78.608,140.449,78.14,140.738,77.388,141.121z
		 M77.832,136.931c-0.971,0-2.288,0.297-2.599-0.559c-0.313-0.856,0.036-1.905,0.036-1.905s1.213-0.96,1.89-0.68
		c0.68,0.282,1.572,1.221,1.583,1.612C78.751,135.777,78.406,136.926,77.832,136.931z M80.404,133.478
		c0.272-0.671,1.306-1.248,2.288-0.396c0.991,0.851,1.207,1.612,0.55,2.187c-0.653,0.577-1.515,0.777-2.094,0.493
		C80.393,135.399,80.142,134.149,80.404,133.478z M82.426,143.097c-1.045,0.293-1.538-0.087-2.033-0.558
		c-0.489-0.479-0.172-2.577,0.305-2.673c0.956-0.199,1.92,0.086,2.316,0.656C83.422,141.091,83.47,142.808,82.426,143.097z
		 M85.682,139.748c-1.238,0.2-2.428-1.134-2.428-1.134c-0.304-0.283-0.43-1.429,0.136-1.621c0.572-0.196,2.099-0.587,2.799,0.269
		C86.889,138.117,86.932,139.552,85.682,139.748z M167.129,140.075c-0.696,1.081-2.128,1.092-2.955,0.7
		c-0.827-0.389-1.342-0.682-1.253-1.569c0.055-0.629,2.223-1.293,2.745-1.099C166.174,138.302,167.829,138.98,167.129,140.075z
		 M164.037,133.185c0.709-0.302,2.061,0.674,2.061,0.674s0.427,1.084,0.137,1.977c-0.29,0.89-1.712,0.604-2.757,0.608
		c-0.614,0.004-1.04-1.178-1.049-1.572C162.42,134.476,163.322,133.489,164.037,133.185z M161.033,142.259
		c-0.505,0.492-1.007,0.888-2.131,0.601c-1.122-0.293-1.154-2.061-0.76-2.653c0.395-0.588,1.408-0.888,2.433-0.694
		C161.086,139.606,161.53,141.768,161.033,142.259z M158.097,132.542c1.004-0.899,2.14-0.311,2.455,0.367
		c0.316,0.692,0.108,1.987-0.668,2.374c-0.61,0.294-1.53,0.104-2.254-0.482C156.906,134.217,157.096,133.43,158.097,132.542z
		 M154.616,136.883c0.696-0.887,2.327-0.5,2.943-0.306c0.613,0.192,0.538,1.37,0.234,1.667c0,0-1.189,1.381-2.515,1.192
		C153.956,139.248,153.926,137.773,154.616,136.883z M113.773,153.957c-0.748,0.908-1.579,1.916-2.477,3.022
		c-2.103-0.988-3.876-0.799-4.268-0.196c-0.462,0.705-3.829-1.829-6.365,2.041l-1.229,1.867c-0.664,1.012-0.917,1.401-0.917,1.401
		l-0.918,1.393c-2.514,3.846,1.139,5.896,0.682,6.592c-0.293,0.448-0.048,1.514,0.831,2.663c-1.335,1.81-2.7,3.696-4.095,5.655
		c-1.971-8.777-2.898-26.675-2.898-26.675C96.27,154.031,106.972,152.856,113.773,153.957z M105.267,196.9
		c-1.257-1.547-2.439-3.23-3.525-4.931c4.856,1.518,12.171,3.262,20.371,3.309c6.828,0.038,12.531-1.726,16.468-3.626
		c-1.43,2.322-3.072,4.639-4.795,6.648c-2.964,0.988-7.711,2.194-13.116,2.088C113.505,200.252,107.443,197.869,105.267,196.9z
		 M143.089,182.73c-0.586,1.635-1.561,3.723-2.786,5.964c-6.416,2.346-15.33,2.809-15.33,2.809s-0.988-0.009-1.396-0.59
		c-0.405-0.579-1.995-1.18-2.968-0.998c-0.979,0.175-4.115,0.317-3.291,1.666c-6.979,0.007-13.571-1.652-17.571-2.919
		c-1.439-2.484-2.631-4.8-3.523-6.491c-0.126-0.247-0.261-0.549-0.383-0.883c1.703-2.41,3.372-4.718,4.988-6.912
		c0.034,0.031,0.063,0.054,0.1,0.083v0.003c0.036,0.033,0.076,0.053,0.119,0.078c0.04,0.027,0.08,0.056,0.115,0.083l0.011-0.004
		c2.441,1.495,4.652,1.364,5.097,0.689c0.466-0.693,3.827,1.851,6.38-1.995l0.926-1.398c0.675-1.013,0.932-1.403,0.932-1.403
		l1.244-1.865c2.572-3.871-1.139-5.936-0.673-6.641c0.394-0.586-0.127-2.221-1.8-3.716c1.147-1.408,2.173-2.653,3.061-3.716
		c1.024,0.34,1.865,0.788,2.443,1.385c3.944-4.247,21.467-1.135,27.024-4.252C145.808,151.708,145.321,176.575,143.089,182.73z
		 M127.986,151.457c0,0-5.783,1.547-5.284,0.516c0.507-1.031-0.703-7.227-0.703-7.227l2.383-0.003
		C126.253,145.771,127.986,151.457,127.986,151.457z M126.198,113.941c0,0,2.601,20.132,3.149,20.776
		c0.547,0.653-1.968,1.056-2.137-0.5C127.039,132.665,125.356,112.123,126.198,113.941z M136.218,151.06
		c4.403-0.259,7.745-0.781,8.81-1.299c-0.653,1.04-3.171,2.209-7.187,2.212c-4.001-0.004-6.659,0.126-7.581,0.516
		C129.469,152.615,131.831,151.321,136.218,151.06z M129.302,150.937c-0.041-1.552-3.076-6.461-3.076-6.461l2.392,0.25l3.594,5.948
		C132.212,150.675,131.153,150.937,129.302,150.937z M128.646,116.125c0,0,3.482,17.931,3.898,18.708
		c0.417,0.778-1.04,1.175-1.324,0.263C130.926,134.194,128.559,118.209,128.646,116.125z"></path>
	<path class="st0" d="M314.753,565.793c-44.587-21.174-88.155-61.046-114.503-87.907c9.342-1.806,20.39-4.529,24.694-7.907
		c8.042-6.32-20.118-40.803-20.118-40.803s-3.45-6.324,1.723-9.767c5.173-3.457,11.301-21.65,17.629-29.12
		c6.316-7.473,11.875-24.714,10.722-27.589c-1.142-2.869,3.831-17.623,3.831-17.623s-0.397-3.576-1.338-9.288
		c3.088-0.936,7.193-2.567,6.706-4.505c-0.297-1.191-2.218-4.814-4.449-8.796c1.416-0.78,2.403-1.698,2.149-2.696
		c-0.372-1.489-3.263-6.746-6.14-11.777c1.504-0.806,2.567-1.75,2.308-2.787c-0.374-1.502-3.329-6.87-6.243-11.955
		c0.665-0.566,1.042-1.182,0.878-1.832c-0.396-1.599-3.706-7.556-6.79-12.905c0.536-0.516,0.806-1.074,0.666-1.653
		c-0.507-2.022-5.655-11.002-9.117-16.907c4.896-10.046,9.948-26.665,10.459-32.519c0.955-11.112,5.551-23.368-19.737-21.838
		c-9.772,0.589-30.266,2.299-30.843-1.723c-0.576-4.027-1.149-17.242-1.149-17.242s-22.927,1.484-33.332,7.471
		c-18.96,10.918-27.007,9.191-57.472-2.298c0,0-18.384,6.892-16.086,9.191c2.297,2.298,9.193,13.794,6.894,17.241
		c-2.299,3.452-37.928,14.943-37.928,17.818c0,2.876,8.042,15.513,8.042,15.513s-8.042,13.224-6.893,14.945
		c1.149,1.727,1.149,1.727,1.149,1.727l-5.747,9.77l2.299,2.297c0,0-9.771,10.347-8.049,10.347c1.727,0,4.026,2.297,4.026,2.297
		l-9.199,10.348l3.452,4.593l-6.898,6.896l5.173,0.576c0,0,0,15.517,5.173,23.564c0,0-1.291,5.309-3.367,13.45
		c-0.534-0.396-1.047-0.806-1.613-1.189c-16.864-11.495-15.325-9.962-19.159-7.663c-3.829,2.302-5.363,8.428-0.766,11.493
		c2.108,1.404,9.704,6.682,17.742,12.051c-6.989,26.562-17.326,63.301-22.722,70.129c0,6.9,20.688,18.386,31.611,20.684
		c0,0-8.047,12.648-5.748,14.375c2.297,1.719,4.596,4.594,4.596,4.594s-4.596,12.645-2.299,13.796
		c0.601,0.306,4.36,1.935,10.062,4.13c-0.507,7.497-1.223,14.332-1.824,17.332c-1.532,7.655-9.959,20.688,2.299,29.876
		c12.261,9.198,16.096,25.288,16.86,28.357c0.768,3.061-3.829,16.087-2.297,22.216c1.533,6.133,6.128,55.179,6.894,69.733
		c0.768,14.558,2.299,22.986-1.531,25.289c-3.831,2.299-29.886,18.389-37.546,19.918c-7.664,1.536-6.133,10.727-3.835,13.796
		c2.299,3.068,0,4.601,7.664,7.665c7.66,3.061,20.688,0,41.376-3.835c20.692-3.831,32.183-4.601,33.717-13.796
		c1.53-9.194-3.067-22.986-4.597-27.583c-1.533-4.597,3.063-39.077,6.894-50.571c3.829-11.497,1.533-37.548-0.766-42.912
		c-2.298-5.367,3.065-16.094,3.065-16.094s2.298,22.991,9.198,24.523c6.898,1.536,14.556,3.065,14.556,3.065
		s8.873,43.059,15.327,76.244c4.025,20.691,3.732,34.476,0.142,45.973c-3.589,11.493-10.488,20.688-19.685,32.185
		c-5.761,7.202-16.853,22.986-16.087,32.181c0.54,6.479,16.087,8.047,18.384,8.047c2.304,0,11.501,5.749,25.677-4.597
		c11.954-8.72,24.517-35.243,28.348-39.847c3.831-4.594,0-31.411,0-36.778c0-5.363,6.246-59.542,9.196-72.802
		c4.598-20.685-3.831-37.534-3.831-42.135c0-4.598,12.259-2.299,13.024-5.364c0.766-3.068,3.065-28.357-5.361-41.383
		c-8.429-13.022,12.257-24.523,9.959-30.649c-0.871-2.324-2.62-12.436-4.873-23.494c58.524,55.531,106.51,77.932,115.239,80.417
		C325.172,582.772,324.314,567.401,314.753,565.793z"></path>
</g>
</svg>
