<svg width="224" height="193" xmlns="http://www.w3.org/2000/svg" xmlns:xlink="http://www.w3.org/1999/xlink" overflow="hidden"><defs><clipPath id="clip0"><rect x="494" y="44" width="224" height="193"/></clipPath><clipPath id="clip1"><rect x="495" y="45" width="223" height="192"/></clipPath><clipPath id="clip2"><rect x="495" y="45" width="223" height="193"/></clipPath><clipPath id="clip3"><rect x="495" y="0" width="291" height="721"/></clipPath></defs><g clip-path="url(#clip0)" transform="translate(-494 -44)"><g clip-path="url(#clip1)"><g clip-path="url(#clip2)"><g clip-path="url(#clip3)"><path d="M258.75 1.83113C191.837 80.5912 121.013 92.5029 74.656 84.6889 40.0679 78.8545 16.3983 61.48 16.3983 61.48 14.371 60.5235 14.4682 62.9143 18.583 66.5387 51.824 89.3248 76.0768 97.7705 98.1601 98.6208 96.5755 99.2345 95.1808 99.8463 94.3908 100.359 92.5263 101.557 85.9154 105.537 83.6074 110.596 81.3182 115.637 80.8152 122.199 80.8152 122.199 80.8152 122.199 75.8059 117.066 73.7148 116.738 71.6344 116.416 70.785 116.936 69.77 117.459 68.7487 117.985 64.6689 119.215 64.7193 120.756 63.0915 123.334 63.797 124.014 63.797 124.014 63.797 124.014 62.1296 125.389 63.3804 127.091 64.6347 128.792 71.7532 131.511 71.6083 132.538 71.4724 133.56 67.7922 136.632 68.4994 137.316 69.2049 137.997 69.4739 138.698 69.4739 138.698 69.4739 138.698 68.6803 138.911 67.3612 140.272 66.042 141.63 62.5867 145.185 63.456 145.861 64.3279 146.541 63.5288 148.062 63.5288 148.062 63.5288 148.062 62.5076 147.888 62.0271 148.731 61.5412 149.574 61.2208 150.082 61.7427 150.418 62.2655 150.761 62.6632 152.786 61.8399 153.459 61.0193 154.131 57.1914 160.828 57.2445 162.338 57.2949 163.848 57.653 164.524 57.653 164.524 57.653 164.524 58.8192 169.234 65.6866 172.531 72.5801 175.839 80.9862 178.43 86.1799 178.697 88.3746 178.807 92.5695 179.097 96.688 179.393 102.244 182.421 108.64 182.707 108.64 182.707 108.64 182.707 115.52 182.684 120.74 179.76 124.408 179.642 127.949 179.535 129.936 179.508 135.342 179.438 150.561 176.695 157.843 173.499 165.183 170.279 166.22 165.363 166.22 165.363 166.22 165.363 166.58 164.663 166.554 163.075 166.533 161.488 161.967 154.381 161.027 153.668 160.088 152.951 160.425 150.839 160.978 150.488 161.525 150.135 161.145 149.604 160.579 148.714 160.005 147.829 158.893 148.004 158.893 148.004 158.893 148.004 157.945 146.405 158.861 145.701 159.775 144.997 155.824 141.268 154.323 139.852 152.819 138.434 148.759 138.076 148.759 138.076 148.759 138.076 148.759 138.076 149.482 137.369 150.205 136.664 146.104 133.486 145.901 132.426 145.696 131.364 153.204 128.511 154.466 126.729 155.731 124.944 153.854 123.533 153.854 123.533 153.854 123.533 154.586 122.82 152.687 120.159 152.658 118.56 148.198 117.348 147.084 116.825 145.969 116.3 145.041 115.773 142.84 116.152 140.646 116.523 135.63 121.865 135.63 121.865 135.63 121.865 134.766 115.157 132.105 110.051 129.451 104.953 122.422 101.102 120.455 99.9471 119.384 99.3191 117.315 98.5668 115.133 97.8596 127.598 96.3191 139.918 92.664 153.627 88.6472 217.477 69.9643 262.056 0.100779 258.75 1.83113ZM69.635 126.983C68.9583 127.328 67.7562 127.332 67.1245 126.395 66.4955 125.455 67.8498 124.85 68.2736 124.677 68.6992 124.507 70.5438 125.057 70.6221 125.604 70.7328 126.378 70.3117 126.638 69.635 126.983ZM70.0345 123.213C69.1608 123.213 67.9757 123.48 67.6959 122.71 67.4143 121.94 67.7283 120.996 67.7283 120.996 67.7283 120.996 68.8198 120.132 69.4289 120.384 70.0408 120.638 70.8435 121.482 70.8534 121.834 70.8615 122.174 70.551 123.208 70.0345 123.213ZM72.3489 120.106C72.5936 119.502 73.524 118.983 74.4076 119.749 75.2993 120.515 75.4937 121.2 74.9025 121.717 74.3149 122.236 73.5393 122.416 73.0183 122.161 72.339 121.834 72.1131 120.709 72.3489 120.106ZM74.1683 128.761C73.228 129.025 72.7844 128.683 72.339 128.259 71.8989 127.828 72.1842 125.94 72.6134 125.854 73.4736 125.675 74.341 125.931 74.6974 126.444 75.0645 126.956 75.1077 128.501 74.1683 128.761ZM77.0981 125.748C75.9841 125.928 74.9133 124.727 74.9133 124.727 74.6398 124.473 74.5264 123.441 75.0357 123.269 75.5504 123.092 76.9244 122.74 77.5543 123.511 78.1842 124.28 78.2229 125.571 77.0981 125.748ZM150.385 126.042C149.759 127.015 148.471 127.024 147.726 126.672 146.982 126.322 146.519 126.058 146.599 125.26 146.648 124.694 148.599 124.096 149.069 124.271 149.526 124.446 151.015 125.057 150.385 126.042ZM147.603 119.842C148.241 119.57 149.458 120.449 149.458 120.449 149.458 120.449 149.842 121.424 149.581 122.227 149.32 123.028 148.041 122.771 147.1 122.775 146.548 122.778 146.164 121.715 146.156 121.36 146.148 121.004 146.96 120.116 147.603 119.842ZM144.9 128.007C144.446 128.45 143.994 128.806 142.983 128.548 141.973 128.284 141.944 126.693 142.299 126.161 142.654 125.631 143.566 125.362 144.488 125.536 144.948 125.62 145.347 127.565 144.9 128.007ZM142.258 119.263C143.162 118.455 144.184 118.984 144.467 119.594 144.752 120.216 144.565 121.382 143.866 121.73 143.317 121.994 142.49 121.823 141.838 121.296 141.187 120.771 141.358 120.063 142.258 119.263ZM139.126 123.17C139.752 122.371 141.22 122.72 141.774 122.894 142.326 123.067 142.258 124.127 141.985 124.394 141.985 124.394 140.915 125.637 139.722 125.467 138.532 125.298 138.505 123.97 139.126 123.17ZM102.375 138.533C101.702 139.35 100.954 140.257 100.146 141.252 98.2537 140.363 96.6583 140.533 96.3056 141.076 95.8899 141.71 92.8602 139.43 90.5782 142.912L89.4724 144.592C88.8749 145.503 88.6472 145.853 88.6472 145.853L87.8212 147.107C85.5591 150.567 88.8461 152.412 88.4349 153.038 88.1712 153.441 88.3917 154.4 89.1826 155.434 87.9814 157.063 86.7531 158.76 85.4979 160.523 83.7243 152.625 82.8902 136.52 82.8902 136.52 86.6253 138.6 96.2552 137.542 102.375 138.533ZM94.721 177.174C93.5899 175.782 92.5263 174.267 91.5491 172.737 95.9186 174.103 102.501 175.672 109.879 175.714 116.023 175.749 121.155 174.161 124.697 172.452 123.411 174.541 121.933 176.626 120.383 178.434 117.716 179.323 113.444 180.408 108.581 180.312 102.134 180.19 96.679 178.046 94.721 177.174ZM128.754 164.423C128.227 165.895 127.349 167.773 126.247 169.79 120.474 171.901 112.453 172.318 112.453 172.318 112.453 172.318 111.564 172.309 111.197 171.787 110.832 171.266 109.401 170.725 108.526 170.889 107.645 171.046 104.823 171.174 105.565 172.388 99.2849 172.394 93.3533 170.901 89.754 169.761 88.4592 167.526 87.3866 165.442 86.5839 163.92 86.4706 163.698 86.3491 163.426 86.2393 163.126 87.7717 160.957 89.2735 158.881 90.7276 156.906 90.7582 156.934 90.7843 156.955 90.8176 156.981L90.8176 156.984C90.85 157.013 90.886 157.031 90.9247 157.054 90.9607 157.078 90.9967 157.104 91.0281 157.129L91.038 157.125C93.2345 158.47 95.224 158.352 95.6244 157.745 96.0437 157.121 99.068 159.411 101.365 155.95L102.198 154.692C102.806 153.78 103.037 153.43 103.037 153.43L104.156 151.751C106.471 148.268 103.132 146.41 103.551 145.776 103.905 145.248 103.437 143.777 101.931 142.432 102.963 141.165 103.887 140.045 104.686 139.088 105.607 139.394 106.364 139.797 106.884 140.334 110.433 136.513 126.2 139.313 131.2 136.508 131.2 136.509 130.762 158.885 128.754 164.423ZM115.164 136.284C115.164 136.284 109.96 137.676 110.409 136.748 110.866 135.82 109.777 130.245 109.777 130.245L111.921 130.242C113.605 131.167 115.164 136.284 115.164 136.284ZM113.555 102.526C113.555 102.526 115.895 120.641 116.389 121.221 116.881 121.808 114.618 122.171 114.466 120.771 114.312 119.374 112.797 100.89 113.555 102.526ZM122.571 135.926C126.533 135.693 129.54 135.224 130.499 134.757 129.911 135.693 127.645 136.745 124.032 136.748 120.431 136.744 118.04 136.861 117.21 137.212 116.498 137.326 118.624 136.161 122.571 135.926ZM116.348 135.816C116.311 134.419 113.58 130.002 113.58 130.002L115.733 130.227 118.967 135.579C118.967 135.58 118.014 135.816 116.348 135.816ZM115.758 104.491C115.758 104.491 118.891 120.626 119.265 121.325 119.641 122.025 118.329 122.382 118.074 121.562 117.809 120.75 115.68 106.366 115.758 104.491Z" fill="#040000" transform="matrix(1 0 0 1.00011 495 0.30043)"/><path d="M283.22 509.11C243.1 490.057 203.897 454.18 180.188 430.01 188.594 428.385 198.536 425.934 202.408 422.895 209.645 417.208 184.306 386.18 184.306 386.18 184.306 386.18 181.201 380.489 185.856 377.391 190.511 374.28 196.025 357.91 201.719 351.189 207.402 344.464 212.404 328.95 211.367 326.363 210.339 323.782 214.814 310.506 214.814 310.506 214.814 310.506 214.457 307.288 213.61 302.148 216.389 301.306 220.083 299.839 219.644 298.095 219.377 297.023 217.649 293.763 215.641 290.18 216.915 289.478 217.803 288.652 217.575 287.754 217.24 286.414 214.639 281.684 212.05 277.157 213.403 276.432 214.36 275.582 214.127 274.649 213.79 273.298 211.131 268.467 208.509 263.892 209.107 263.383 209.447 262.828 209.299 262.243 208.943 260.805 205.964 255.444 203.189 250.631 203.672 250.167 203.915 249.665 203.789 249.144 203.332 247.324 198.7 239.244 195.585 233.931 199.991 224.891 204.536 209.937 204.996 204.67 205.856 194.671 209.991 183.643 187.237 185.019 178.444 185.549 160.003 187.088 159.483 183.469 158.965 179.845 158.45 167.954 158.45 167.954 158.45 167.954 137.82 169.29 128.457 174.677 111.396 184.501 104.156 182.947 76.7427 172.609 76.7427 172.609 60.2004 178.811 62.2682 180.879 64.3351 182.947 70.5402 193.291 68.4715 196.393 66.4029 199.499 34.3433 209.839 34.3433 212.426 34.3433 215.014 41.5796 226.385 41.5796 226.385 41.5796 226.385 34.3433 238.284 35.3772 239.833 36.4111 241.387 36.4111 241.387 36.4111 241.387L31.2398 250.178 33.3085 252.245C33.3085 252.245 24.5164 261.555 26.0659 261.555 27.6199 261.555 29.6885 263.622 29.6885 263.622L21.4111 272.933 24.5173 277.066 18.3104 283.271 22.9651 283.79C22.9651 283.79 22.9651 297.752 27.6199 304.993 27.6199 304.993 26.4582 309.77 24.5902 317.095 24.1097 316.739 23.6481 316.37 23.1388 316.025 7.96428 305.682 9.34909 307.061 5.8992 309.13 2.4538 311.202 1.07348 316.714 5.20994 319.472 7.10675 320.735 13.9418 325.484 21.1745 330.315 14.8857 354.216 5.58426 387.275 0.728851 393.419 0.728851 399.627 19.3443 409.963 29.173 412.031 29.173 412.031 21.9321 423.411 24.0008 424.965 26.0677 426.512 28.1364 429.099 28.1364 429.099 28.1364 429.099 24.0008 440.477 26.0677 441.513 26.6085 441.788 29.9909 443.254 35.1216 445.229 34.6654 451.975 34.0212 458.125 33.4804 460.825 32.1019 467.713 24.5191 479.44 35.5491 487.708 46.5817 495.984 50.0325 510.462 50.72 513.224 51.411 515.978 47.2746 527.699 48.6531 533.214 50.0325 538.733 54.1672 582.865 54.8564 595.961 55.5475 609.061 56.9251 616.644 53.4788 618.717 50.0316 620.785 26.5869 635.263 19.6943 636.639 12.7981 638.021 14.1757 646.291 16.2435 649.053 18.3122 651.814 16.2435 653.193 23.1397 655.95 30.0323 658.704 41.7551 655.95 60.3705 652.499 78.9895 649.052 89.3293 648.359 90.7096 640.085 92.0863 631.812 87.9499 619.402 86.5732 615.266 85.1937 611.129 89.3293 580.104 92.7765 569.761 96.2219 559.416 94.1559 535.975 92.0872 531.148 90.0194 526.319 94.8452 516.667 94.8452 516.667 94.8452 516.667 96.9129 537.354 103.122 538.733 109.329 540.115 116.219 541.491 116.219 541.491 116.219 541.491 124.203 580.236 130.011 610.096 133.633 628.714 133.369 641.118 130.139 651.464 126.909 661.805 120.701 670.079 112.426 680.424 107.242 686.905 97.2612 701.107 97.9504 709.381 98.4363 715.211 112.426 716.622 114.493 716.622 116.566 716.622 124.841 721.795 137.597 712.486 148.354 704.639 159.658 680.773 163.105 676.631 166.552 672.497 163.105 648.366 163.105 643.537 163.105 638.711 168.726 589.96 171.38 578.029 175.517 559.416 167.933 544.255 167.933 540.115 167.933 535.978 178.964 538.046 179.652 535.288 180.341 532.528 182.41 509.772 174.828 498.051 167.243 486.334 185.857 475.985 183.789 470.473 183.006 468.382 181.432 459.283 179.405 449.332 232.065 499.3 275.244 519.457 283.099 521.693 292.595 524.388 291.823 510.557 283.22 509.11Z" fill="#040000" transform="matrix(1 0 0 1.00011 495 0.30043)"/></g></g></g></g></svg>