<svg xmlns="http://www.w3.org/2000/svg" xmlns:xlink="http://www.w3.org/1999/xlink" width="283" height="283" viewBox="0 0 283 283">
  <defs>
    <clipPath id="clip-path">
      <circle id="楕円形_24" data-name="楕円形 24" cx="141.5" cy="141.5" r="141.5" transform="translate(-21285 -22364)" fill="#fff" stroke="#707070" stroke-width="1"/>
    </clipPath>
  </defs>
  <g id="マスクグループ_23" data-name="マスクグループ 23" transform="translate(21285 22364)" clip-path="url(#clip-path)">
    <g id="hutari" transform="translate(-21271.754 -22353.639)">
      <circle id="楕円形_25" data-name="楕円形 25" cx="18.184" cy="18.184" r="18.184" transform="translate(175.024 30.347)" fill="#470f80"/>
      <circle id="楕円形_26" data-name="楕円形 26" cx="18.184" cy="18.184" r="18.184" transform="translate(45.137 30.347)" fill="#470f80"/>
      <circle id="楕円形_27" data-name="楕円形 27" cx="18.184" cy="18.184" r="18.184" transform="translate(110.08 30.347)" fill="#470f80"/>
      <path id="パス_90" data-name="パス 90" d="M192.164,144.5l-11.69-43.122a10.836,10.836,0,0,0-2.338-4.156,45.112,45.112,0,0,0-17.924-11.43,43.252,43.252,0,0,0-28.056,0,43.374,43.374,0,0,0-17.924,11.43,13.174,13.174,0,0,0-2.338,4.156L100.2,144.5c-1.039,4.156,1.039,8.832,5.455,9.871a5.72,5.72,0,0,0,2.078.26,8.031,8.031,0,0,0,7.533-5.715l10.391-37.927V243.214h15.586v-74.3H151.64v74.035h15.586V110.989l10.391,37.927a8.031,8.031,0,0,0,7.533,5.715,5.72,5.72,0,0,0,2.078-.26C190.865,153.332,193.2,148.656,192.164,144.5Z" transform="translate(-17.66 -11.283)" fill="#470f80"/>
      <path id="パス_91" data-name="パス 91" d="M77.089,143.131l11.69-43.122A17.6,17.6,0,0,1,91.9,93.774a43.679,43.679,0,0,0-14.807-8.313,43.252,43.252,0,0,0-28.056,0,43.374,43.374,0,0,0-17.924,11.43,13.174,13.174,0,0,0-2.338,4.156L17.081,144.43c-1.039,4.156,1.039,8.832,5.455,9.871a5.72,5.72,0,0,0,2.078.26,8.031,8.031,0,0,0,7.533-5.715l10.391-37.927V243.144H58.126v-74.3H68.516v74.035H84.1V158.717A13.67,13.67,0,0,1,77.089,143.131Z" transform="translate(0 -11.213)" fill="#470f80"/>
      <path id="パス_92" data-name="パス 92" d="M279.254,144.5,267.3,101.377a10.836,10.836,0,0,0-2.338-4.156,45.111,45.111,0,0,0-17.924-11.43,43.252,43.252,0,0,0-28.056,0A46.288,46.288,0,0,0,204.179,94.1a14.72,14.72,0,0,1,3.117,5.975l11.69,43.122a13.367,13.367,0,0,1-7.014,15.586v84.426h15.586v-74.3H237.95v74.035h15.586V110.989l10.391,37.927a8.031,8.031,0,0,0,7.533,5.715,5.72,5.72,0,0,0,2.078-.26A8.081,8.081,0,0,0,279.254,144.5Z" transform="translate(-39.806 -11.283)" fill="#470f80"/>
    </g>
  </g>
</svg>
