<svg id="フリーの握手アイコン" xmlns="http://www.w3.org/2000/svg" width="1012.609" height="700.305" viewBox="0 0 1012.609 700.305">
  <path id="パス_86" data-name="パス 86" d="M763.875,67.388,665.263,166l9.167,9.521c-6.531,5.275-13.14,10.421-19.556,14.989-10.355,7.4-20.3,13.33-27.034,16.113a17.2,17.2,0,0,1-5.9.692c-5.807.063-15.519-1.416-27.42-3.232-11.95-1.8-26.245-3.762-42.357-3.779a170.805,170.805,0,0,0-45.882,6.143,171.9,171.9,0,0,0-45.783-6.125c-16.131,0-30.426,1.962-42.375,3.78-11.9,1.816-21.6,3.3-27.4,3.232a16.236,16.236,0,0,1-5.838-.692c-7.189-2.943-18.029-9.505-29.188-17.626-5.773-4.2-11.659-8.8-17.5-13.524L347.347,166,248.734,67.39,0,325.014l98.613,98.613,28.865-29.9,63.715,55.608a143.78,143.78,0,0,0,9.022,30.283c2.524,6.08,5.29,11.932,8.123,17.432a64.8,64.8,0,0,0,43.853,97.487A64.971,64.971,0,0,0,317.259,658.9c.837,0,1.689-.129,2.524-.16a64.887,64.887,0,0,0,64.583,57.41c2.156,0,4.3-.225,6.465-.435A59.222,59.222,0,0,0,480.823,758.8L510.383,740.4a118.842,118.842,0,0,0,18.348,9.776,98.915,98.915,0,0,0,38.291,8.136,75.257,75.257,0,0,0,43.661-13.379c8.716-6.078,16.1-14.41,22.143-24.234.933.032,1.689.194,2.654.21a66.209,66.209,0,0,0,19.509-2.992,99.766,99.766,0,0,0,20.472-9.165,71.015,71.015,0,0,0,34.64-43.162,58.194,58.194,0,0,0,11.578-4.952c13.107-7.543,21.647-19.008,26.905-30.523a85.875,85.875,0,0,0,7.622-35.315c0-1.143-.144-2.253-.194-3.378a81.725,81.725,0,0,0,22.835-14.119,73.715,73.715,0,0,0,16.564-20.553,55.861,55.861,0,0,0,7-26.452,46.7,46.7,0,0,0-4.133-19.315,47.452,47.452,0,0,0-3.41-5.676,232.571,232.571,0,0,0,14.279-29.959,135.9,135.9,0,0,0,7.286-25.99l66.433-57.974L914,423.631l98.612-98.617ZM274.4,544.964l-1.143.724a17.693,17.693,0,0,1-18.7-30.04l39.063-24.267a17.615,17.615,0,0,1,24.348,5.692l20.118-12.5-20.118,12.511a17.472,17.472,0,0,1,2.67,9.264,17.875,17.875,0,0,1-4.228,11.386L282.858,538.58A65.726,65.726,0,0,0,274.4,544.964Zm52.151,63.891a17.424,17.424,0,0,1-9.3,2.67,17.579,17.579,0,0,1-13.542-28.978l33.562-20.889a64.745,64.745,0,0,0,8.411-6.353l1.222-.74a17.311,17.311,0,0,1,9.28-2.67,17.687,17.687,0,0,1,9.359,32.726Zm106.122,33-39.013,24.251a17.328,17.328,0,0,1-9.3,2.67,17.7,17.7,0,0,1-9.392-32.71L414.037,611.8a17.247,17.247,0,0,1,9.278-2.652,17.675,17.675,0,0,1,9.361,32.708Zm60.484,39.559a11.553,11.553,0,0,1,1.784,6.191,11.865,11.865,0,0,1-5.629,10.116l-33.5,20.808a11.371,11.371,0,0,1-6.224,1.784,11.838,11.838,0,0,1-6.305-21.886h.016l33.531-20.842a11.455,11.455,0,0,1,6.224-1.8,11.77,11.77,0,0,1,10.083,5.6l20.134-12.48ZM753.664,534.35c-1.72,3.329-5.644,7.67-10.612,10.71a31.39,31.39,0,0,1-16.275,4.857,22.549,22.549,0,0,0-5.71.819,65.226,65.226,0,0,1-10.083-3.087c-10.308-4.021-19.94-10.534-26.743-16.034-3.41-2.749-6.111-5.225-7.913-6.946l-1.994-1.978-.435-.451-.065-.064h-.014a17.766,17.766,0,0,0-26.148,24.057,151.79,151.79,0,0,0,24.138,20.393,131.76,131.76,0,0,0,26.18,14.087c2.332.918,4.76,1.768,7.254,2.542a23.1,23.1,0,0,0,2.621,4.438l-.047.034a19.371,19.371,0,0,1,1.013,7.076c.115,6.544-2.266,15.116-5.692,19.843a15.805,15.805,0,0,1-5.031,4.889,12.607,12.607,0,0,1-6.594,1.592l-1.143-.016c-.677-.031-1.317.081-1.978.113h-.047c-15.407.065-29.749-6.544-40.332-13.781a101.4,101.4,0,0,1-12.351-9.873c-1.4-1.319-2.476-2.413-3.137-3.087l-.69-.74-.113-.144h-.016A17.765,17.765,0,0,0,604.9,616.917l-.016-.014a126.85,126.85,0,0,0,23.159,19.94,118.471,118.471,0,0,0,36.2,16.724c-.16.419-.257.837-.451,1.256-1.865,4.213-4.535,8.554-11.8,12.8a54.254,54.254,0,0,1-10.872,5,17.8,17.8,0,0,1-5.629.9c-2.3.034-5.757-.482-11.514-1.657a20.834,20.834,0,0,0-3.135-.352c-.388-.162-.755-.307-1.175-.516-5.886-2.767-13.059-7.769-18.35-12.029-2.654-2.106-4.9-4.036-6.449-5.4l-1.737-1.576-.4-.386-.081-.063a17.766,17.766,0,1,0-24.556,25.681,185.536,185.536,0,0,0,18.332,15.037c1.865,1.319,3.924,2.654,5.983,3.972a34.127,34.127,0,0,1-8.876,9.891c-4.729,3.249-9.875,4.792-16.5,4.826a51.975,51.975,0,0,1-19.892-4.407,70.5,70.5,0,0,1-6.867-3.6,59.043,59.043,0,0,0-51.944-74.2c0-.645.111-1.286.111-1.946a65.007,65.007,0,0,0-9.794-34.3v.034a64.991,64.991,0,0,0-55.322-30.766c-.835,0-1.689.144-2.524.178a64.934,64.934,0,0,0-9.293-26.68h.014a64.8,64.8,0,0,0-43.548-29.542,64.9,64.9,0,0,0-9.762-33.644h.016A65.052,65.052,0,0,0,268.6,451.13l-22.819,14.184c-.548-1.254-1.238-2.476-1.736-3.732-3.971-9.5-6.465-18.88-6.738-25.343l-.53-10L160.435,359.6,305.167,209.7c7.4,6.064,14.989,12.078,22.774,17.707,12.9,9.3,25.681,17.5,38.74,23a62.063,62.063,0,0,0,24.043,4.325c12-.047,23-2.106,34.462-3.779.74-.129,1.511-.192,2.266-.307a380.368,380.368,0,0,0-41.137,41.782c-9.794,11.5-18.059,22.337-24.605,31.181-6.463,8.8-11.449,15.889-13.637,18.688-10.775,14.022-15.4,30.8-15.5,47.6.047,15.632,4.2,31.905,14.972,45.656a59.469,59.469,0,0,0,21.033,16.8,65.682,65.682,0,0,0,28.4,6.175c12.592-.034,25.794-3.087,39.771-8.959,43.87-18.557,89.092-30.924,123.119-38.547,17.015-3.8,31.247-6.432,41.169-8.089l4.97-.819L754.875,530.447l.063.032.049.081A9.8,9.8,0,0,1,753.664,534.35Zm17.224-108.116-.516,10c-.273,5.724-2.219,13.8-5.484,22.161-1.657,4.373-3.682,8.781-5.8,13.12L628.71,359.141a23.787,23.787,0,0,0-18.46-5.563c-1.157.225-96.779,12.223-191.935,52.331-9.471,4-16.579,5.241-21.34,5.209a17.76,17.76,0,0,1-7.992-1.529c-2.541-1.238-4.359-2.992-6.159-6.353a29.994,29.994,0,0,1-2.878-13.346c-.1-7.4,2.541-14.924,5.5-18.492,3.685-4.76,8.186-11.257,14.394-19.653a468.356,468.356,0,0,1,36.648-44.337c14.89-15.711,32.212-30.924,50.367-41.6,24.558-14.424,45.48-18.043,65.309-18.108,12.2-.016,23.911,1.511,35.331,3.232,11.449,1.689,22.481,3.714,34.447,3.779a62.35,62.35,0,0,0,23.947-4.278L646,250.4c13.059-5.5,25.843-13.7,38.74-23,7.737-5.6,15.359-11.643,22.725-17.689L849.929,357.26Z" transform="translate(0 -67.388)" fill="#b14a1c"/>
</svg>
