<svg xmlns="http://www.w3.org/2000/svg" xmlns:xlink="http://www.w3.org/1999/xlink" width="264" height="264" viewBox="0 0 264 264">
  <defs>
    <clipPath id="clip-path">
      <circle id="楕円形_21" data-name="楕円形 21" cx="132" cy="132" r="132" transform="translate(-20408 -20509)" fill="#aa1818" stroke="#707070" stroke-width="1"/>
    </clipPath>
  </defs>
  <g id="マスクグループ_21" data-name="マスクグループ 21" transform="translate(20408 20509)" clip-path="url(#clip-path)">
    <path id="chat" d="M59.135,60.75a9.159,9.159,0,0,0-9.105,9.212h0V180.671h0a9.159,9.159,0,0,0,9.1,9.212H86.45v36.9l36.421-36.9H223.029a9.159,9.159,0,0,0,9.105-9.212h0V69.962h0a9.159,9.159,0,0,0-9.1-9.212H59.135ZM170.54,125.022a13.39,13.39,0,1,1,13.39,13.39A13.39,13.39,0,0,1,170.54,125.022Zm-42.848,0a13.39,13.39,0,1,1,13.39,13.39A13.39,13.39,0,0,1,127.692,125.022Zm-42.848,0a13.39,13.39,0,1,1,13.39,13.39A13.39,13.39,0,0,1,84.843,125.022Z" transform="translate(-20416.98 -20499.551)" fill="#aa1818"/>
  </g>
</svg>
