<svg width="950" height="634" xmlns="http://www.w3.org/2000/svg" xmlns:xlink="http://www.w3.org/1999/xlink" overflow="hidden"><defs><clipPath id="clip0"><rect x="5" y="43" width="950" height="634"/></clipPath></defs><g clip-path="url(#clip0)" transform="translate(-5 -43)"><path d="M433 112C433 88.8041 451.804 70 475 70 498.196 70 517 88.8041 517 112 517 135.196 498.196 154 475 154 451.804 154 433 135.196 433 112Z" fill="#0860A8" fill-rule="evenodd"/><path d="M521.542 116.702C658 141.974 748.134 273.083 722.862 409.542 720.71 421.16 717.742 432.612 713.978 443.813" stroke="#0860A8" stroke-width="3" stroke-miterlimit="8" fill="none" fill-rule="evenodd"/><path d="M651 489C651 465.804 669.804 447 693 447 716.196 447 735 465.804 735 489 735 512.196 716.196 531 693 531 669.804 531 651 512.196 651 489Z" fill="#FF0000" fill-rule="evenodd"/><path d="M660.474 534.168C566.372 636.171 407.398 642.576 305.396 548.474 300.437 543.899 295.665 539.127 291.09 534.168" stroke="#FF0000" stroke-width="3" stroke-miterlimit="8" fill="none" fill-rule="evenodd"/><path d="M215 489C215 465.804 233.804 447 257 447 280.196 447 299 465.804 299 489 299 512.196 280.196 531 257 531 233.804 531 215 512.196 215 489Z" fill="#FFB300" fill-rule="evenodd"/><path d="M237.585 443.813C193.385 312.261 264.198 169.786 395.751 125.586 406.951 121.822 418.404 118.854 430.022 116.702" stroke="#FFB300" stroke-width="3" stroke-miterlimit="8" fill="none" fill-rule="evenodd"/><text font-family="Impact,Impact_MSFontService,sans-serif" font-style="oblique" font-weight="400" font-stretch="condensed" font-size="221" transform="translate(291.677 451)">TRI</text></g></svg>