<svg width="1282" height="730" xmlns="http://www.w3.org/2000/svg" xmlns:xlink="http://www.w3.org/1999/xlink" overflow="hidden"><defs><clipPath id="clip0"><rect x="-1" y="-1" width="1282" height="730"/></clipPath><linearGradient x1="640" y1="720" x2="640" y2="0" gradientUnits="userSpaceOnUse" spreadMethod="reflect" id="fill1"><stop offset="0"/><stop offset="0.48" stop-color="#080808"/><stop offset="1" stop-color="#666666"/></linearGradient><clipPath id="clip2"><rect x="0" y="229" width="366" height="484"/></clipPath><clipPath id="clip3"><rect x="-1" y="229" width="367" height="484"/></clipPath><clipPath id="clip4"><rect x="-154" y="229" width="520" height="484"/></clipPath></defs><g clip-path="url(#clip0)" transform="translate(1 1)"><rect x="0" y="0" width="1280" height="720" fill="url(#fill1)"/><g clip-path="url(#clip2)"><g clip-path="url(#clip3)"><g clip-path="url(#clip4)"><path d="M16.9364 43.8148C16.9364 37.1545 12.4931 6.04452 16.9364 1.60516 21.3731-2.84395 41.3698 28.266 44.6977 30.4864 48.0424 32.7106 93.5839 41.5952 98.0246 41.5952 102.465 41.5952 129.13 13.8215 138.01 13.8215 146.903 13.8215 138.01 57.1479 139.123 68.2567 140.235 79.357 154.676 108.247 170.229 120.468 185.785 132.688 198.006 141.572 198.006 141.572 198.006 141.572 314.639 187.111 326.869 242.666 339.077 298.197 356.85 284.876 359.075 280.435 361.29 275.991 373.515 223.768 416.845 215.996 460.169 208.228 503.486 200.456 496.826 168.242 493.49 154.892 507.939 142.685 514.599 157.125 521.26 171.57 522.367 209.339 490.161 224.88 457.944 240.445 412.394 230.441 394.621 271.544 376.847 312.654 361.29 327.086 351.302 335.966 365.743 353.752 356.85 397.07 326.869 418.187 296.867 439.279 280.202 429.287 273.542 435.952 266.874 442.607 237.997 460.393 221.332 451.5 210.219 451.5 201.339 447.052 205.778 439.279 205.778 439.279 207.999 432.62 213.547 429.287 219.111 425.955 222.439 420.403 222.439 420.403 222.439 420.403 194.679 410.394 185.785 399.289 185.785 407.062 178.001 423.739 176.889 432.62 175.781 441.5 161.348 478.157 143.576 463.725 133.571 468.165 122.471 459.284 122.471 459.284 114.69 459.284 112.466 448.172 116.91 443.719 119.138 437.059 125.803 432.62 131.356 432.62 136.903 432.62 136.903 427.068 136.903 427.068 136.903 427.068 123.579 427.068 115.798 427.068 108.03 427.068 100.245 420.403 100.245 420.403 100.245 420.403 91.3655 414.842 96.9131 410.394 101.352 403.73 105.805 402.622 111.358 402.622 116.91 402.622 118.017 364.852 113.573 351.528 109.137 338.186 99.1328 297.085 93.5839 288.204 88.0318 279.324 50.2667 233.778 45.8098 203.788 41.3691 173.791 39.1533 160.458 39.1533 160.458 39.1533 160.458 21.3725 150.453 19.1567 141.572 10.2643 132.688 0.271533 118.235 1.3843 98.2506 2.49186 78.2449 6.93188 69.3649 12.4931 59.3682 18.0452 49.3715 16.9364 43.8148 16.9364 43.8148Z" fill="#FFFFFF" transform="matrix(-1 0 0 1.03339 366 229.072)"/></g></g></g><text fill="#FFFFFF" fill-opacity="0.878431" font-family="Tanuki Permanent Marker,Tanuki Permanent Marker_MSFontService,sans-serif" font-weight="400" font-size="59" transform="translate(392.869 561)">黒猫ニャテラシーの<tspan font-size="59" x="40.2466" y="70">ネットリテラシー</tspan></text><path d="M424.495 344.442 472.568 280.978C438.818 189.698 492.24 90.6381 591.89 59.7224 691.54 28.8067 799.682 77.7419 833.432 169.022 867.183 260.303 813.76 359.362 714.111 390.278 640.559 413.097 559.249 392.736 508.599 338.816Z" stroke="#000000" stroke-width="1.33333" stroke-miterlimit="8" fill="#FFFFFF" fill-rule="evenodd"/><text fill="#000000" fill-opacity="0.878431" font-family="Tanuki Permanent Marker,Tanuki Permanent Marker_MSFontService,sans-serif" font-weight="700" font-size="53" transform="translate(555.369 344)">リリース<tspan font-size="88" x="-78.9168" y="-98">８／１２</tspan><tspan fill="#FFFFFF" fill-opacity="1" font-family="Cambria,Cambria_MSFontService,sans-serif" font-weight="400" font-size="24" x="642.19" y="363">©</tspan><tspan fill="#FFFFFF" fill-opacity="1" font-family="UD Digi Kyokasho NK-R,UD Digi Kyokasho NK-R_MSFontService,sans-serif" font-weight="400" font-size="24" x="662.523" y="363">TRI</tspan></text></g></svg>