<svg width="456" height="98" xmlns="http://www.w3.org/2000/svg" xmlns:xlink="http://www.w3.org/1999/xlink" overflow="hidden"><defs><clipPath id="clip0"><rect x="285" y="518" width="456" height="98"/></clipPath><linearGradient x1="513.064" y1="523.024" x2="513.064" y2="609.424" gradientUnits="userSpaceOnUse" spreadMethod="reflect" id="fill1"><stop offset="0" stop-color="#F6F8FC"/><stop offset="0.00806452" stop-color="#F5F7FB"/><stop offset="0.016129" stop-color="#F5F7FB"/><stop offset="0.0241935" stop-color="#F5F7FB"/><stop offset="0.0322581" stop-color="#F5F7FB"/><stop offset="0.0403226" stop-color="#F5F7FB"/><stop offset="0.0483871" stop-color="#F5F7FB"/><stop offset="0.0564516" stop-color="#F5F7FB"/><stop offset="0.0645161" stop-color="#F5F7FB"/><stop offset="0.0725806" stop-color="#F5F7FB"/><stop offset="0.0806452" stop-color="#F4F6FA"/><stop offset="0.0887097" stop-color="#F4F6FA"/><stop offset="0.0967742" stop-color="#F4F6FA"/><stop offset="0.104839" stop-color="#F4F6FA"/><stop offset="0.112903" stop-color="#F4F5F9"/><stop offset="0.120968" stop-color="#F3F5F9"/><stop offset="0.129032" stop-color="#F3F5F9"/><stop offset="0.137097" stop-color="#F3F5F8"/><stop offset="0.145161" stop-color="#F2F4F8"/><stop offset="0.153226" stop-color="#F2F4F8"/><stop offset="0.16129" stop-color="#F2F4F7"/><stop offset="0.169355" stop-color="#F1F3F7"/><stop offset="0.177419" stop-color="#F1F3F7"/><stop offset="0.185484" stop-color="#F0F2F6"/><stop offset="0.193548" stop-color="#F0F2F6"/><stop offset="0.201613" stop-color="#F0F1F5"/><stop offset="0.209677" stop-color="#EFF1F5"/><stop offset="0.217742" stop-color="#EFF1F4"/><stop offset="0.225806" stop-color="#EEF0F4"/><stop offset="0.233871" stop-color="#EEF0F3"/><stop offset="0.241935" stop-color="#EDEFF3"/><stop offset="0.25" stop-color="#EDEFF2"/><stop offset="0.258065" stop-color="#ECEEF2"/><stop offset="0.266129" stop-color="#ECEDF1"/><stop offset="0.274194" stop-color="#EBEDF0"/><stop offset="0.282258" stop-color="#EAECF0"/><stop offset="0.290323" stop-color="#EAECEF"/><stop offset="0.298387" stop-color="#E9EBEF"/><stop offset="0.306452" stop-color="#E9EAEE"/><stop offset="0.314516" stop-color="#E8EAED"/><stop offset="0.322581" stop-color="#E7E9ED"/><stop offset="0.330645" stop-color="#E7E8EC"/><stop offset="0.33871" stop-color="#E6E8EB"/><stop offset="0.346774" stop-color="#E5E7EA"/><stop offset="0.354839" stop-color="#E4E6EA"/><stop offset="0.362903" stop-color="#E4E5E9"/><stop offset="0.370968" stop-color="#E3E5E8"/><stop offset="0.379032" stop-color="#E2E4E7"/><stop offset="0.387097" stop-color="#E1E3E6"/><stop offset="0.395161" stop-color="#E1E2E6"/><stop offset="0.403226" stop-color="#E0E1E5"/><stop offset="0.41129" stop-color="#DFE1E4"/><stop offset="0.419355" stop-color="#DEE0E3"/><stop offset="0.427419" stop-color="#DDDFE2"/><stop offset="0.435484" stop-color="#DCDEE1"/><stop offset="0.443548" stop-color="#DCDDE0"/><stop offset="0.451613" stop-color="#DBDCDF"/><stop offset="0.459677" stop-color="#DADBDE"/><stop offset="0.467742" stop-color="#D9DADD"/><stop offset="0.475806" stop-color="#D8D9DC"/><stop offset="0.483871" stop-color="#D7D8DB"/><stop offset="0.491935" stop-color="#D6D8DA"/><stop offset="0.5" stop-color="#D5D7D9"/><stop offset="0.508065" stop-color="#D4D6D8"/><stop offset="0.516129" stop-color="#D3D4D7"/><stop offset="0.524194" stop-color="#D2D3D6"/><stop offset="0.532258" stop-color="#D1D2D5"/><stop offset="0.540323" stop-color="#D0D1D4"/><stop offset="0.548387" stop-color="#CFD0D3"/><stop offset="0.556452" stop-color="#CECFD2"/><stop offset="0.564516" stop-color="#CDCED1"/><stop offset="0.572581" stop-color="#CCCDD0"/><stop offset="0.580645" stop-color="#CBCCCE"/><stop offset="0.58871" stop-color="#C9CBCD"/><stop offset="0.596774" stop-color="#C8CACC"/><stop offset="0.604839" stop-color="#C7C8CB"/><stop offset="0.612903" stop-color="#C6C7CA"/><stop offset="0.620968" stop-color="#C5C6C8"/><stop offset="0.629032" stop-color="#C4C5C7"/><stop offset="0.637097" stop-color="#C2C4C6"/><stop offset="0.645161" stop-color="#C1C2C5"/><stop offset="0.653226" stop-color="#C0C1C3"/><stop offset="0.66129" stop-color="#BFC0C2"/><stop offset="0.669355" stop-color="#BDBEC1"/><stop offset="0.677419" stop-color="#BCBDBF"/><stop offset="0.685484" stop-color="#BBBCBE"/><stop offset="0.693548" stop-color="#BABBBD"/><stop offset="0.701613" stop-color="#B8B9BB"/><stop offset="0.709677" stop-color="#B7B8BA"/><stop offset="0.717742" stop-color="#B6B7B8"/><stop offset="0.725806" stop-color="#B4B5B7"/><stop offset="0.733871" stop-color="#B3B4B6"/><stop offset="0.741935" stop-color="#B2B2B4"/><stop offset="0.75" stop-color="#B0B1B3"/><stop offset="0.758065" stop-color="#AFB0B1"/><stop offset="0.766129" stop-color="#ADAEB0"/><stop offset="0.774194" stop-color="#ACADAE"/><stop offset="0.782258" stop-color="#AAABAD"/><stop offset="0.790323" stop-color="#A9AAAB"/><stop offset="0.798387" stop-color="#A7A8AA"/><stop offset="0.806452" stop-color="#A6A7A8"/><stop offset="0.814516" stop-color="#A5A5A6"/><stop offset="0.822581" stop-color="#A3A4A5"/><stop offset="0.830645" stop-color="#A1A2A3"/><stop offset="0.83871" stop-color="#A0A0A2"/><stop offset="0.846774" stop-color="#9E9FA0"/><stop offset="0.854839" stop-color="#9D9D9E"/><stop offset="0.862903" stop-color="#9B9C9D"/><stop offset="0.870968" stop-color="#9A9A9B"/><stop offset="0.879032" stop-color="#989899"/><stop offset="0.887097" stop-color="#969798"/><stop offset="0.895161" stop-color="#959596"/><stop offset="0.903226" stop-color="#939494"/><stop offset="0.91129" stop-color="#929292"/><stop offset="0.919355" stop-color="#909091"/><stop offset="0.927419" stop-color="#8E8E8F"/><stop offset="0.935484" stop-color="#8C8D8D"/><stop offset="0.943548" stop-color="#8B8B8B"/><stop offset="0.951613" stop-color="#89898A"/><stop offset="0.959677" stop-color="#878788"/><stop offset="0.967742" stop-color="#868686"/><stop offset="0.975806" stop-color="#848484"/><stop offset="0.983871" stop-color="#828282"/><stop offset="0.991935" stop-color="#808080"/><stop offset="1" stop-color="#7F7F7F"/></linearGradient></defs><g clip-path="url(#clip0)" transform="translate(-285 -518)"><path d="M652.669 579.391C651.591 579.391 650.724 579.696 650.068 580.305 649.505 580.798 649.224 581.407 649.224 582.133 649.224 584.618 651.31 585.86 655.482 585.86 656.724 585.86 657.825 585.766 658.786 585.579 657.825 581.454 655.786 579.391 652.669 579.391ZM357.111 564.555C354.087 566.712 351.743 569.079 350.079 571.657 348.579 574.001 347.829 576.239 347.829 578.372 347.829 579.262 348.099 579.966 348.638 580.481 349.06 580.903 349.587 581.114 350.22 581.114 352.236 581.114 355.013 579.719 358.552 576.93 357.708 571.821 357.228 567.696 357.111 564.555ZM568.294 561.532C564.943 565.493 563.267 569.665 563.267 574.048 563.267 575.383 563.525 576.473 564.04 577.317 564.509 578.067 565.095 578.442 565.798 578.442 567.907 578.442 570.403 576.696 573.286 573.204 571.06 568.915 569.396 565.024 568.294 561.532ZM373.388 559.669C370.364 559.739 367.294 560.29 364.177 561.321 364.247 565.329 364.54 568.926 365.056 572.114 368.361 568.317 371.138 564.169 373.388 559.669ZM585.064 552.743C581.243 553.235 577.622 554.583 574.2 556.786 575.302 560.817 576.65 564.321 578.243 567.298 580.423 563.758 582.696 558.907 585.064 552.743ZM493.341 546.028C497.208 547.13 499.704 547.997 500.829 548.63 501.603 548.981 501.989 549.438 501.989 550.001 501.989 550.329 501.872 550.692 501.638 551.091 500.958 552.309 500.478 553.575 500.196 554.887 499.353 559.2 498.767 563.571 498.439 568.001 502.142 564.251 506.161 561.38 510.497 559.387 514.529 557.536 518.536 556.61 522.521 556.61 528.075 556.61 532.364 558.204 535.388 561.391 537.989 564.11 539.29 567.649 539.29 572.008 539.29 579.133 535.669 584.512 528.427 588.145 523.833 590.466 517.681 592.118 509.97 593.102 509.478 593.173 509.103 593.208 508.845 593.208 508.095 593.208 507.509 592.868 507.087 592.188 505.564 589.446 503.935 587.407 502.2 586.071 510.568 585.555 517.165 584.208 521.993 582.028 527.665 579.591 530.501 575.969 530.501 571.165 530.501 568.868 529.739 567.051 528.216 565.716 526.693 564.403 524.571 563.747 521.853 563.747 518.501 563.747 514.868 564.848 510.954 567.051 507.556 568.95 504.275 571.493 501.111 574.68 499.915 575.899 498.884 577.223 498.017 578.653 497.759 579.075 497.466 579.286 497.138 579.286 496.974 579.286 496.716 579.239 496.364 579.145 494.349 578.466 492.72 577.821 491.478 577.212 490.798 576.954 490.458 576.473 490.458 575.77 490.833 568.528 491.571 560.782 492.673 552.532 493.118 549.274 493.341 547.106 493.341 546.028ZM589.388 532.493C592.833 533.196 595.669 534.157 597.896 535.376 598.669 535.727 599.056 536.161 599.056 536.676 599.056 537.005 598.892 537.415 598.564 537.907 597.954 538.751 597.474 539.641 597.122 540.579 596.372 542.548 595.693 544.469 595.083 546.344 601.294 547.329 606.146 549.837 609.638 553.868 612.755 557.524 614.314 561.977 614.314 567.227 614.314 579.626 606.943 587.641 592.2 591.274 591.732 591.368 591.368 591.415 591.11 591.415 590.454 591.415 589.833 590.958 589.247 590.044 587.935 587.934 586.376 586.352 584.571 585.298 598.939 582.344 606.122 576.005 606.122 566.278 606.122 562.341 604.798 559.106 602.15 556.575 599.806 554.348 596.806 553.048 593.15 552.673 589.61 561.227 586.107 568.235 582.638 573.696 583.81 575.313 584.841 576.532 585.732 577.352 583.857 579.602 582.368 581.079 581.267 581.782 580.939 582.016 580.599 582.133 580.247 582.133 579.943 582.133 579.614 581.993 579.263 581.712 578.489 580.938 577.833 580.235 577.294 579.602 573.005 584.149 568.997 586.423 565.271 586.423 562.294 586.423 559.939 585.239 558.204 582.872 556.634 580.762 555.849 578.055 555.849 574.751 555.849 567.157 559.259 560.278 566.079 554.114 565.845 553.341 565.095 550.176 563.829 544.622 562.985 541.27 562.271 539.008 561.685 537.837 565.247 537.977 567.954 538.364 569.806 538.997 570.72 539.231 571.177 539.923 571.177 541.071 571.177 542.571 571.271 543.942 571.458 545.184 571.857 547.505 572.196 549.204 572.478 550.282 576.673 548.055 581.571 546.696 587.173 546.204 587.946 543.907 588.638 540.977 589.247 537.415 589.411 536.149 589.493 535.083 589.493 534.216 589.493 533.583 589.458 533.008 589.388 532.493ZM665.185 532.282C665.747 532.282 666.298 532.469 666.837 532.844 668.759 534.321 670.364 535.856 671.653 537.45 672.193 538.059 672.462 538.645 672.462 539.208 672.462 539.981 672.052 540.555 671.232 540.93 670.411 541.329 669.357 542.091 668.068 543.216 666.591 544.669 663.86 547.399 659.876 551.407 656.9 554.383 654.45 556.798 652.528 558.649L652.599 558.86C656.396 556.704 660.216 555.626 664.06 555.626 669.708 555.626 674.208 557.419 677.56 561.005 680.466 564.145 681.919 568.118 681.919 572.923 681.919 579.368 679.353 584.383 674.22 587.969 669.767 591.087 663.954 592.645 656.782 592.645 651.907 592.645 648.181 591.591 645.603 589.481 643.353 587.653 642.228 585.18 642.228 582.063 642.228 579.462 643.341 577.294 645.568 575.559 647.513 574.036 649.786 573.274 652.388 573.274 656.044 573.274 659.068 574.282 661.458 576.298 663.614 578.102 665.103 580.598 665.923 583.786 668.642 582.544 670.575 580.997 671.724 579.145 672.755 577.458 673.271 575.348 673.271 572.817 673.271 569.325 672.087 566.571 669.72 564.555 667.681 562.821 665.091 561.954 661.95 561.954 655.646 561.954 649.505 564.497 643.528 569.583 642.614 570.426 640.528 572.466 637.271 575.7 636.732 576.239 636.321 576.508 636.04 576.508 635.759 576.508 635.396 576.298 634.95 575.876 633.638 574.727 632.232 573.157 630.732 571.165 630.568 570.977 630.485 570.778 630.485 570.567 630.485 570.262 630.685 569.911 631.083 569.512 636.45 565.176 642.134 559.88 648.134 553.622 653.032 548.559 656.759 544.446 659.314 541.282 654.814 542.102 650.173 543.016 645.392 544.024 644.15 544.305 643.142 544.598 642.368 544.903 641.782 545.137 641.302 545.255 640.927 545.255 640.224 545.255 639.696 544.844 639.345 544.024 638.595 542.548 637.763 539.958 636.849 536.255 638.068 536.419 639.368 536.501 640.751 536.501 641.689 536.501 642.614 536.466 643.528 536.395 648.474 535.903 653.923 535.083 659.876 533.934 661.868 533.536 663.181 533.173 663.814 532.844 664.47 532.469 664.927 532.282 665.185 532.282ZM439.833 531.157C440.888 531.157 441.415 531.591 441.415 532.458L441.275 533.829C441.275 534.204 441.368 534.919 441.556 535.973 441.931 537.309 442.318 538.551 442.716 539.7 447.497 538.786 452.396 537.52 457.411 535.903 457.669 535.786 457.868 535.727 458.009 535.727 458.29 535.727 458.489 535.903 458.607 536.255 459.099 537.755 459.509 539.36 459.837 541.071 459.861 541.165 459.872 541.247 459.872 541.317 459.872 541.856 459.579 542.208 458.993 542.372 454.986 543.637 450.275 544.868 444.861 546.063 445.54 547.891 446.384 549.907 447.392 552.11 452.103 551.126 456.474 549.872 460.505 548.348 460.763 548.231 460.974 548.173 461.138 548.173 461.443 548.173 461.665 548.383 461.806 548.805 462.251 549.907 462.685 551.489 463.107 553.551 463.153 553.762 463.177 553.938 463.177 554.079 463.177 554.407 462.954 554.665 462.509 554.852 458.806 556.258 454.751 557.43 450.345 558.368 453.696 563.969 456.837 568.118 459.767 570.813 460.165 571.165 460.364 571.481 460.364 571.762 460.364 571.95 460.282 572.208 460.118 572.536 459.415 574.036 458.431 575.536 457.165 577.036 456.767 577.505 456.392 577.739 456.04 577.739 455.782 577.739 455.443 577.598 455.021 577.317 454.2 576.661 452.782 575.887 450.767 574.997 447.204 573.45 442.693 572.676 437.232 572.676 433.646 572.676 430.892 573.227 428.97 574.329 427.329 575.29 426.509 576.567 426.509 578.161 426.509 580.551 428.185 582.227 431.536 583.188 434.232 583.962 438.275 584.348 443.665 584.348 443.689 584.348 446.325 584.208 451.575 583.926 452.161 583.926 452.454 584.173 452.454 584.665 452.454 584.735 452.454 584.805 452.454 584.876 451.986 587.735 451.505 589.915 451.013 591.415 450.802 592.071 450.298 592.434 449.501 592.505 447.837 592.645 446.103 592.716 444.298 592.716 435.462 592.716 428.888 591.403 424.575 588.778 420.825 586.505 418.95 583.305 418.95 579.18 418.95 575.032 420.732 571.833 424.294 569.583 427.435 567.614 431.607 566.63 436.81 566.63 442.247 566.63 446.372 567.239 449.185 568.458 447.568 566.536 445.575 563.7 443.208 559.95 434.771 561.262 428.196 561.977 423.486 562.094 422.829 562.094 422.396 561.755 422.185 561.075 421.505 558.778 421.071 556.821 420.884 555.204 427.47 555.063 433.927 554.466 440.255 553.411 439.997 552.848 439.54 551.841 438.884 550.387 438.251 549.005 437.794 548.02 437.513 547.434 430.318 548.512 424.493 549.087 420.04 549.157 419.22 549.157 418.739 548.817 418.599 548.137 418.435 547.575 418.048 545.653 417.439 542.372 422.9 542.442 428.876 542.055 435.368 541.212 434.736 539.383 434.161 537.825 433.646 536.536 432.849 534.637 432.005 533.102 431.114 531.93 434.138 531.415 437.044 531.157 439.833 531.157ZM358.552 530.489C362.396 530.958 365.208 531.508 366.989 532.141 367.857 532.446 368.29 532.88 368.29 533.442 368.29 533.911 368.173 534.298 367.939 534.602 367.47 535.165 367.13 536.032 366.919 537.204 366.849 537.579 366.743 538.223 366.603 539.137 366.509 539.817 366.415 540.368 366.321 540.79 372.65 540.18 378.896 539.173 385.06 537.766 385.247 537.719 385.411 537.696 385.552 537.696 385.927 537.696 386.173 537.966 386.29 538.505 386.759 540.52 386.993 542.149 386.993 543.391 386.993 544.165 386.489 544.645 385.482 544.833 378.474 546.262 371.665 547.27 365.056 547.856 364.751 550.809 364.575 553.235 364.528 555.133 367.435 554.149 371.114 553.622 375.568 553.551 376.318 551.512 376.716 549.755 376.763 548.278 379.88 549.239 382.013 550.13 383.161 550.95 384.028 551.512 384.462 552.04 384.462 552.532 384.462 552.813 384.321 553.106 384.04 553.411 383.829 553.598 383.525 554.067 383.126 554.817 388.142 556.153 391.915 558.473 394.446 561.778 396.72 564.708 397.857 568.247 397.857 572.395 397.857 577.716 395.712 582.239 391.423 585.966 388.001 588.942 383.478 591.18 377.853 592.68 377.361 592.821 376.962 592.891 376.657 592.891 375.861 592.891 375.204 592.376 374.689 591.344 374.173 590.313 372.755 588.825 370.435 586.88 373.107 586.317 375.802 585.473 378.521 584.348 380.771 583.411 382.528 582.497 383.794 581.606 387.638 578.817 389.56 575.219 389.56 570.813 389.56 567.907 388.564 565.481 386.571 563.536 385.025 562.036 383.056 560.981 380.665 560.372 376.845 567.637 372.31 573.919 367.06 579.216 367.2 579.731 367.622 580.821 368.325 582.485 368.466 582.766 368.536 583.012 368.536 583.223 368.536 583.551 368.278 583.903 367.763 584.278 366.333 585.333 364.892 586.165 363.439 586.774 363.134 586.938 362.9 587.02 362.736 587.02 362.501 587.02 362.255 586.821 361.997 586.423 361.552 585.649 361.153 584.712 360.802 583.61 355.786 587.079 351.603 588.813 348.251 588.813 345.626 588.813 343.599 587.923 342.169 586.141 340.903 584.571 340.271 582.485 340.271 579.883 340.271 575.196 342.181 570.602 346.001 566.102 349.071 562.516 352.775 559.645 357.111 557.489 357.181 554.911 357.298 551.911 357.462 548.489 355.704 548.559 354.099 548.594 352.646 548.594L350.079 548.559C347.9 548.559 346.528 548.512 345.966 548.419 345.169 548.348 344.736 547.798 344.665 546.766 344.571 546.133 344.501 545.219 344.454 544.024 344.384 542.618 344.337 541.704 344.314 541.282 346.517 541.54 349.048 541.669 351.907 541.669 352.376 541.669 354.497 541.645 358.271 541.598 358.669 538.106 358.868 535.481 358.868 533.723 358.868 532.622 358.763 531.544 358.552 530.489ZM503.536 529.962C503.677 529.962 503.829 529.985 503.993 530.032 509.126 532.048 513.837 534.907 518.126 538.61 518.454 538.891 518.618 539.161 518.618 539.419 518.618 539.583 518.501 539.864 518.267 540.262 517.189 542.02 515.958 543.708 514.575 545.325 514.271 545.7 514.013 545.887 513.802 545.887 513.544 545.887 513.251 545.723 512.923 545.395 508.423 541.458 503.571 538.341 498.368 536.044 500.196 533.301 501.614 531.426 502.622 530.419 502.927 530.114 503.232 529.962 503.536 529.962Z" fill="url(#fill1)" fill-rule="evenodd"/><text fill="#000000" fill-opacity="0" font-family="Arial,Arial_MSFontService,sans-serif" font-size="63.2461" x="340.271" y="585.302">あきらめる</text></g></svg>