<!--?xml version="1.0" encoding="utf-8"?-->
<!-- Generator: Adobe Illustrator 22.1.0, SVG Export Plug-In . SVG Version: 6.00 Build 0)  -->
<svg version="1.1" id="_x31__1_" xmlns="http://www.w3.org/2000/svg" xmlns:xlink="http://www.w3.org/1999/xlink" x="0px" y="0px" viewBox="0 0 257.562 800" style="width: 161px;" xml:space="preserve">
<style type="text/css">
	.st0{fill:#040000;}
</style>
<g>
	<path class="st0" d="M54.034,88.51c4.317,12.98,3.362,20.191-2.406,28.842c-5.772,8.653,3.84,9.609,7.685,11.534
		c0,0,3.845,2.406,1.927,11.537c-0.993,4.705,3.845,7.693,3.845,7.693s1.918,1.123,1.918,6.726c0,10.576,29.324,1.922,6.728,20.188
		c-4.541,3.675-41.332,21.147-51.905,62.479C11.252,278.844,1.64,331.71,0.679,342.288c-0.967,10.574,18.263,44.221,19.229,78.824
		c0,0-2.884,8.651,4.801,8.651c7.689,0,20.185,51.91,29.797,113.427c9.607,61.527,2.889,90.358,5.768,103.814
		c1.03,4.795-4.806,59.605-3.85,62.489c0.972,2.884-24.986,30.758-42.293,39.414c-17.296,8.646-14.418,26.913,5.768,31.719
		c20.185,4.801,59.599-1.928,63.444-1.928c3.845,0,22.113,1.928,23.068-4.805c0.962-6.728,1.928-37.487,1.928-37.487
		s10.573-148.991,10.573-169.187c0-20.185,21.592,66.152,27.874,90.364c6.728,25.952,7.685,54.793,7.685,54.793
		s-8.646,19.224,0.972,23.074c0,0-19.229,20.185-29.802,27.875c-10.574,7.685-38.453,27.875-7.695,33.642
		c30.764,5.763,73.057-14.417,75.94-15.384c2.888-0.956,19.229-11.529,20.19-21.147c0.956-9.612-0.961-28.836-0.961-28.836
		s2.889-0.961,3.844-3.845c0.962-2.889-13.457-145.152-13.457-148.035c0-2.884,2.884-92.28,2.884-92.28l12.183-35.57
		c0,0,49.839-62.557,35.883-112.784c-12.819-46.143,1.928-63.444-44.215-132.656c-16.537-24.808-51.129-30.965-56.238-33.807
		c-8.65-4.809-6.728-10.573-6.728-22.11c0-10.1,33.164-25.472,39.892-62.003c6.729-36.523-6.728-81.701-71.134-86.51
		c-34.603,1.919-40.37,24.993-63.444,23.071c-10.924-0.91-22.103,37.49,0.961,47.102C51.145,81.304,54.034,88.51,54.034,88.51z"></path>
</g>
</svg>
