<svg xmlns="http://www.w3.org/2000/svg" width="282.661" height="359.103" viewBox="0 0 282.661 359.103"><defs><style>.a{fill:#4d4544;}.b{fill:#fce0cd;}.c{fill:#211715;}.d{fill:#382f2d;}.e{fill:#f9cbac;}</style></defs><path class="a" d="M236.658,326.63c8.871-1.667,13.211-.933,21.868-7.279,7.336-5.378,17.331-10.038,21.7-18.415a24.825,24.825,0,0,0,2.36-13.177,129.915,129.915,0,0,0-6.221-32.687c-3.763-11.155-20.577-49.878-23.321-58.041-2.987-8.885-6.3-18.07-13-24.626-3.694-3.613-8.212-6.214-12.815-8.607-3.621-2.137-23.116-12.48-24.713-13.338,8.29-5.6,15.053-11.526,20.925-22.532a34.724,34.724,0,0,0,2.861-6.889c4.07-14.408,1.679-29.753-.737-44.529-1.355-8.281-11.8-40.761-33.4-55.872C181.954,13.493,150.012.836,138.378,0c-11.642.833-43.589,13.492-53.8,20.638C62.982,35.749,52.535,68.229,51.18,76.51c-2.416,14.776-4.807,30.121-.737,44.529a34.78,34.78,0,0,0,2.86,6.889c5.878,11.016,12.649,16.945,20.916,22.567-2.085,1.022-15.179,9.565-18.784,11.692-4.6,2.393-9.121,4.994-12.815,8.608-6.7,6.555-10.011,15.74-13,24.625-2.744,8.163-19.558,46.886-23.321,58.041A129.967,129.967,0,0,0,.079,286.148a24.825,24.825,0,0,0,2.36,13.177c4.365,8.378,14.36,13.037,21.7,18.416a54.172,54.172,0,0,0,21.8,7.717"/><path class="b" d="M84.306,114.025a60.827,60.827,0,0,1-1.994-22.276c10.93-7.857,32.56-18.228,54.926-18.228s44.3,9.778,54.926,18.228a56.2,56.2,0,0,1-2.394,22.244C180.5,113.993,87.075,114.025,84.306,114.025Z"/><path class="c" d="M141.289,220.6c-39.487.285-78.782.515-92.735.562a4.01,4.01,0,0,0-4,4.029c.081,22.669,1.174,101.122,2.007,129.958a4.018,4.018,0,0,0,4.086,3.9c12.609-.195,51.663-.075,90.641.058,38.977-.133,78.031-.253,90.641-.058a4.016,4.016,0,0,0,4.085-3.9c.833-28.836,1.927-107.289,2.008-129.958a4.011,4.011,0,0,0-4-4.029C220.071,221.111,180.775,220.881,141.289,220.6Z"/><path class="a" d="M63.6,347.254c19.134-.119,38.27-.017,57.4.042,23.359.072,46.716-.038,70.075-.072,9.3-.014,18.6-.028,27.9.03,3.09.019,3.093-4.781,0-4.8-19.134-.119-38.27-.017-57.4.042-23.358.072-46.716-.038-70.074-.072-9.3-.014-18.6-.028-27.9.03-3.087.019-3.094,4.819,0,4.8Z"/><path class="d" d="M87.261,161.12a61.672,61.672,0,0,0,21.376,8.532,2.463,2.463,0,0,0,2.952-1.676,2.421,2.421,0,0,0-1.676-2.952,57.982,57.982,0,0,1-20.229-8.049c-2.612-1.666-5.023,2.487-2.423,4.145Z"/><path class="d" d="M188.409,156.975a57.982,57.982,0,0,1-20.229,8.049,2.423,2.423,0,0,0-1.677,2.952,2.451,2.451,0,0,0,2.953,1.676,61.668,61.668,0,0,0,21.375-8.532c2.6-1.656.193-5.812-2.422-4.145Z"/><path class="a" d="M161.929,267.428a22,22,0,0,0-2.418-2.16,28.786,28.786,0,0,0-14.67-5.492c-1.112-.112-5.908-.112-7.02,0a28.783,28.783,0,0,0-14.67,5.492,20.281,20.281,0,0,0-7.936,13.263c-.74,5.98,1.75,12.086,5.848,16.5a13.945,13.945,0,0,0,6.114,4.14q.066,4.049.126,8.12a1,1,0,0,0,.121.567.879.879,0,0,0,.4.28,6.761,6.761,0,0,0,2.495.362c3.671.067,18.353.067,22.024,0a6.756,6.756,0,0,0,2.494-.362.868.868,0,0,0,.4-.28,1,1,0,0,0,.122-.567q.061-4.065.126-8.12a13.945,13.945,0,0,0,6.114-4.14c4.1-4.418,6.587-10.524,5.847-16.5A19.666,19.666,0,0,0,161.929,267.428Z"/><path class="c" d="M123.9,280.7c.5-2.592,2.853-4.7,5.434-5.509a7.064,7.064,0,0,1,6.364.751,6.118,6.118,0,0,1,1.911,6.195,9.972,9.972,0,0,1-3.578,4.707,7.686,7.686,0,0,1-4.51,1.516,5.312,5.312,0,0,1-4.191-2.056,7.071,7.071,0,0,1-.713-1.3,8.214,8.214,0,0,1-.815-3.264A5.432,5.432,0,0,1,123.9,280.7Z"/><path class="c" d="M159.673,280.7c-.5-2.592-2.853-4.7-5.433-5.509a7.064,7.064,0,0,0-6.364.751,6.116,6.116,0,0,0-1.912,6.195,9.974,9.974,0,0,0,3.579,4.707,7.684,7.684,0,0,0,4.51,1.516,5.31,5.31,0,0,0,4.19-2.056,7.076,7.076,0,0,0,.714-1.3,8.231,8.231,0,0,0,.815-3.264A5.353,5.353,0,0,0,159.673,280.7Z"/><path class="c" d="M146.358,302.034v7.191"/><path class="c" d="M144.358,302.034v7.191a2,2,0,0,0,4,0v-7.191a2,2,0,0,0-4,0Z"/><path class="c" d="M136.311,302.034v7.191"/><path class="c" d="M134.311,302.034v7.191a2,2,0,0,0,4,0v-7.191a2,2,0,0,0-4,0Z"/><path class="e" d="M82.312,91.749c9.666-9.575,32.56-22.55,54.926-22.55s45.26,12.975,54.926,22.55c.909,5.778-38.673-7.635-55.589-7.635C123.464,84.114,81.446,103.261,82.312,91.749Z"/><path class="c" d="M90.087,125.879a38.441,38.441,0,0,1-3.693-6.345,42.686,42.686,0,0,1-2.4-6.6l1.991-.5C98.9,109.187,118.365,102.6,129.571,95.4c2.68-1.72,5.62-3.627,8.777-3.206a12.38,12.38,0,0,1,5.286,2.534l1.046.672c11.206,7.194,30.673,13.785,43.588,17.028l1.839.462c-4.613,15.509-15.525,26.656-26.451,29.4a95.426,95.426,0,0,1-19.971,3.09c-7.118.3-19.129-.581-19.129-.581C111.509,142.379,98.242,137.219,90.087,125.879Z"/><path class="d" d="M135.645,100.257c-.156,12.767.042,25.535-.114,38.3-.037,3.09,4.763,3.092,4.8,0,.156-12.766-.042-25.534.114-38.3.037-3.09-4.763-3.092-4.8,0Z"/></svg>