<!--?xml version="1.0" encoding="utf-8"?-->
<!-- Generator: Adobe Illustrator 22.1.0, SVG Export Plug-In . SVG Version: 6.00 Build 0)  -->
<svg version="1.1" id="_x34_" xmlns="http://www.w3.org/2000/svg" xmlns:xlink="http://www.w3.org/1999/xlink" x="0px" y="0px" viewBox="0 0 264.495 800" style="enable-background:new 0 0 264.495 800;" xml:space="preserve">
<style type="text/css">
	.st0{fill:#040000;}
</style>
<g>
	<path class="st0" d="M1.48,387.138c2.06-1.394,5.163-0.625,5.163-0.625l4.587-52.391c0,0,2.781-15.669,4.108-26.636
		c1.321-10.967,7.627-79.902,16.717-93.999c9.087-14.104,57.631-27.391,55.943-38.379c-1.306-8.541,2.438-14.326,9.233-17.961
		c-5.921-6.69-11.074-15.014-15.18-24.52c-13.146-5.337-34.521-35.298-15.797-40.182c-4.449-3.96-6.638-49.346,28.823-59.826
		C101.841,9.673,132.07-4.945,158.345,5.36c26.277,10.299,30.578,35.149,42.003,48.488c11.423,13.34,2.589,33.034-2.238,42.156
		c-4.833,9.123-2.298,10.862-2.298,10.862s0.32,9.046-3.854,18.98c-6.392,15.198-13.912,8.116-15.377,11.397
		c-1.112,2.472-2.612,12.083-11.271,21.632c7.983,3.252,6.664,6.046,6.664,6.046s0.24,16.103,14.547,25.509
		c14.307,9.394,60.361,21.581,63.084,81.465l6.679,112.803l6.28,0.702l0.345,15.664l-2.036,2.438l2.961,18.343l-17.129,4.697
		c3.373,10.972,10.875,16.648,10.678,23.614c-0.194,6.961-6.057,25.063-6.725,26.462c-0.663,1.388-14.512,4.876-17.339,3.13
		c-2.823-1.742-3.563-3.827-3.563-3.827s-3.532-2.09-2.182-4.18c1.342-2.084,0.935-4.872,0.935-4.872s-3.911-6.402-3.409-14.419
		c-2.758,0.63-6.07,1.347-9.868,2.089c1.001,20.31,3.342,73.188,0.898,76.973c-3.027,4.697-1.375,21.698-1.375,21.698
		s8.657,139.265,4.803,153.889c-1.13,4.287-3.23,7.643-5.955,10.265c2.054,10.48,5.53,26.503,9.492,33.085
		c5.965,9.927,16.222,25.073,13.784,32.905c-2.435,7.833-4.91,14.102-27.875,14.619c-29.454,0.676-31.1-13.051-32.959-26.108
		c-1.74-12.227-2.897-39.574-2.3-48.57c-4.662-1.193-8.401-2.791-10.325-4.359l-6.09-117.68l-5.675-36.209
		c0,0-12.578-64.761-15.07-64.869c-9.4-0.415-21.138,83.032-21.138,83.032s-5.437,108.096-5.158,120.635
		c0.06,2.73-1.677,5.015-4.515,6.792c1.024,8.083,1.106,35.4-0.077,47.473c-1.234,12.621-2.241,25.893-30.744,25.242
		c-22.225-0.502-24.884-6.567-27.576-14.137c-2.692-7.571,6.577-22.215,11.915-31.805c3.165-5.681,5.637-18.615,7.222-28.537
		c-0.604-0.589-1.153-1.214-1.59-1.9c-8.109-12.534-4.69-140.996-4.797-145.693c-0.094-4.256,3.071-93.179,3.67-110.047
		c-7.279-2.044-14.555-4.456-21.762-7.263c0.144,0.804,0.3,1.603,0.495,2.387c2.287,9.23,4.566,18.455-2.654,19.859
		c-3.447,5.65-1.27,11.576-8.749,15.285c-7.475,3.714-19.921-3.094-22.097-9.016c-2.175-5.921-0.75-23.122-0.75-23.122l7.406-24.741
		c-6.318-0.906-11.092-1.967-11.343-2.674c-0.743-2.09,1.037-16.013,1.037-16.013H1.895C1.895,405.941-0.579,388.536,1.48,387.138z"></path>
</g>
</svg>
