<!--?xml version="1.0" encoding="utf-8"?-->
<!-- Generator: Adobe Illustrator 22.1.0, SVG Export Plug-In . SVG Version: 6.00 Build 0)  -->
<svg version="1.1" id="_x31_1" xmlns="http://www.w3.org/2000/svg" xmlns:xlink="http://www.w3.org/1999/xlink" x="0px" y="0px" viewBox="0 0 545.775 800" style="width: 342px;" xml:space="preserve">
<style type="text/css">
	.st0{fill:#040000;}
</style>
<g>
	<path class="st0" d="M532.282,12.504c-17.213-24.389-28.294-0.235-24.389,11.482c7.176,21.517-1.426,111.897-7.177,159.236
		c-5.732,47.333-27.249,124.811-74.588,131.968c-15.862,2.414-87.507,1.446-110.47,10.055c-15.767,0-97.543,21.524-106.152,21.524
		c-8.604,0-37.297,5.743-40.176,0c-2.859-5.732,7.177-28.687,15.787-34.431c8.602-5.751,34.424-27.249,34.424-43.034
		c0-15.787-15.786-8.61-64.545-5.751c-8.61-8.602-40.162-31.552-45.912-34.424c-5.732-2.859,0-38.749-5.732-43.034
		c-5.743-4.305-23.192,35.29-27.261,37.284c-12.449,6.113-28.662,15.385-40.245,30.075c-11.577,14.653-16.977,35.508-14.671,44.761
		c2.311,9.271-2.306,31.667-2.306,31.667c-2.331,9.271-4.471,14.022-11.634,80.005C-18.58,505.992,48.843,607.84,53.129,615.022
		c4.318,7.183,12.928,103.275,12.928,107.605c0,4.279-2.878,28.669-12.928,28.669c-10.035,0-21.517,17.218-15.766,27.267
		c5.731,10.049,15.766,8.609,25.816,10.049c8.608,1.427,22.949-2.891,22.949-2.891l17.225,8.609c0,0,8.61,7.182,25.822,1.452
		c35.851,10.048,38.73-57.375,40.156-76.033c1.434-18.659,34.425-123.373,34.425-123.373s15.786-7.17,41.608-4.316
		c25.834,2.878,103.294-2.853,131.987-17.206c-1.433,18.644,32.999,80.337,38.73,91.799c2.343,4.687,0.847,12.507-2.413,20.874
		c-4.369,2.662-9.565,5.234-14.799,6.381c-10.488,2.343-12.463,17.918-5.14,26.77c-9.832,11.016-20.848,19.359-26.432,26.337
		c-5.732,7.159,0,17.207,8.622,17.207c0,0,25.822,7.157,32.999-1.44c14.341,4.305,27.249-12.914,51.644-55.948
		c24.389-43.034,28.694-124.811,25.814-130.556c-2.872-5.717-20.084-10.036-4.304-34.437
		c15.767-24.364,22.949-173.564,22.949-173.564s-4.304-7.17,20.085-71.728C549.494,231.999,549.494,36.894,532.282,12.504z"></path>
</g>
</svg>
