<!--?xml version="1.0" encoding="utf-8"?-->
<!-- Generator: Adobe Illustrator 22.1.0, SVG Export Plug-In . SVG Version: 6.00 Build 0)  -->
<svg version="1.1" id="_x38_" xmlns="http://www.w3.org/2000/svg" xmlns:xlink="http://www.w3.org/1999/xlink" x="0px" y="0px" viewBox="0 0 353.585 800" style="width: 221px;" xml:space="preserve">
<style type="text/css">
	.st0{fill:#040000;}
</style>
<g>
	<path class="st0" d="M341.699,747.488c-12.566-2.285-21.711-21.712-45.702-99.397c-14.299-46.32-41.188-86.935-62.259-112.44
		c-1.028-7.981-1.716-13.25-1.716-13.25s1.131-27.418-14.858-58.268c3.422-39.991-14.064-151.818-21.716-180.515
		c-9.13-34.274-21.701-109.696-21.701-109.696s-10.73-0.787-6.86-11.413c4.575-12.583,3.422-26.292,2.285-41.138
		c-1.137-14.858,2.29-54.847,1.138-58.269c-1.138-3.443,6.859-35.42-2.275-38.842c-9.145-3.433-17.142,18.267-22.865,18.267
		c-4.553-1.136-43.401-4.558-46.838-4.558c0,0-19.428-31.988-26.271-29.725c-6.866,2.307-5.713,38.865-5.713,38.865
		S56.065,63.102,51.49,66.524c-4.57,3.432-1.149,14.868-1.149,26.281c0,11.414,13.72,45.708,14.852,49.119
		c0.218,0.678-0.323,4.963-1.345,11.643c-0.235-0.077-0.475-0.142-0.738-0.197c-16.972-3.936-27.211-35.421-27.211-46.857
		c0-11.424,1.23-39.989,1.23-55.983c0-15.994,1.241-33.136-1.23-39.98c-2.487-6.866-7.429-6.866-13.628-8.013
		C16.091,1.4,12.374,1.4,6.192,9.402c-6.188,3.411-7.435,18.28-1.231,25.134c0,0,0,54.836,0,85.677
		c0,28.566,31.764,125.82,37.645,156.267c-2.929,24.706-4.832,72.218-4.832,95.121c0,25.134,28.572,138.24,27.419,147.39
		c-1.132,9.13-6.855,25.135-17.142,81.108c-10.277,55.984,54.853,106.262,61.713,117.697c6.843,11.414-5.724,31.989-6.86,36.548
		c-1.137,4.581-5.713,9.15-15.989,12.572c-10.287,3.422-12.572,15.994-10.287,23.986c0,9.151,29.697,8.014,41.132,4.581
		c11.419-3.443,35.422-58.281,41.127-73.116c5.707-14.857-4.57-32.02-9.145-46.855c-4.575-14.858,12.567-42.287,29.708-43.412
		c3.439,19.426,23.991,47.97,28.561,53.699c4.575,5.707-3.421,38.832-10.281,44.549c-6.854,5.707-12.573,10.277-10.282,21.723
		c2.285,11.424,22.848,18.268,37.706,7.98c13.72-10.264,15.994-134.816,15.994-151.959c0-0.798-0.016-1.716-0.066-2.755
		c17.361,22.313,30.495,55.952,38.908,89.591c13.72,54.859,34.284,76.558,57.138,77.696
		C359.978,773.78,354.272,749.784,341.699,747.488z"></path>
</g>
</svg>
