<!--?xml version="1.0" encoding="utf-8"?-->
<!-- Generator: Adobe Illustrator 22.1.0, SVG Export Plug-In . SVG Version: 6.00 Build 0)  -->
<svg version="1.1" id="_x31_0" xmlns="http://www.w3.org/2000/svg" xmlns:xlink="http://www.w3.org/1999/xlink" x="0px" y="0px" viewBox="0 0 436.64 800" style="width: 273px;" xml:space="preserve">
<style type="text/css">
	.st0{fill:#040000;}
</style>
<g>
	<path class="st0" d="M34.448,467.272c9.408-69.548,57.211-153.591,60.853-168.791c3.628-15.22,19.568-84.767,19.568-84.767
		c-24.648-57.963,5.778-99.248,6.504-105.041c0.739-5.806,4.354-22.465,0-34.775c-4.354-12.324-19.554-60.86-2.177-63.748
		c17.391-2.916,63.03,44.188,63.03,44.188c22.47-4.355,78.256-8.695,89.841-2.91c0,0,48.529-57.224,63.017-48.529
		c14.501,8.696-4.34,75.335-4.34,84.029c0,8.695,17.389,24.634,22.456,61.578c4.328,31.589-4.34,65.933-5.067,72.45
		c-0.725,6.526,12.311,65.927,13.05,99.25c0.712,33.328,60.126,145.62,57.224,264.436c-0.645,26.771-6.585,50.282-15.388,70.885
		c21.759,8.87,59.967,51.586,1.613,84.142c-28.626,15.993-64.319,25.246-94.531,29.008c-2.634,2.897-4.3,5.296-4.718,7.223
		c-3.615,17.384-24.621,12.311-29.687,13.762c-4.354,4.349-15.939,5.074-22.471,0c-2.89,0.72-7.23-2.17-11.584-3.621
		c-5.067,0-7.97-3.629-7.97-3.629s-3.629,2.177-7.97,0c0,0-12.324,13.042-21.006,10.153c-4.354,3.615-16.678,7.956-26.099,3.615
		c-21.006,1.445-16.638-39.854-16.638-39.854s-11.611,7.249-19.581,3.629c-3.615,0.725-18.104,7.25-22.444,1.451
		C98.19,764.318,93.85,730.99,93.85,730.99C-71.331,688.971,34.448,467.272,34.448,467.272z"></path>
</g>
</svg>
