<svg width="456" height="98" xmlns="http://www.w3.org/2000/svg" xmlns:xlink="http://www.w3.org/1999/xlink" overflow="hidden"><defs><clipPath id="clip0"><rect x="285" y="389" width="456" height="98"/></clipPath><linearGradient x1="513.064" y1="394.047" x2="513.064" y2="480.447" gradientUnits="userSpaceOnUse" spreadMethod="reflect" id="fill1"><stop offset="0" stop-color="#F6F8FC"/><stop offset="0.00806452" stop-color="#F5F7FB"/><stop offset="0.016129" stop-color="#F5F7FB"/><stop offset="0.0241935" stop-color="#F5F7FB"/><stop offset="0.0322581" stop-color="#F5F7FB"/><stop offset="0.0403226" stop-color="#F5F7FB"/><stop offset="0.0483871" stop-color="#F5F7FB"/><stop offset="0.0564516" stop-color="#F5F7FB"/><stop offset="0.0645161" stop-color="#F5F7FB"/><stop offset="0.0725806" stop-color="#F5F7FB"/><stop offset="0.0806452" stop-color="#F4F6FA"/><stop offset="0.0887097" stop-color="#F4F6FA"/><stop offset="0.0967742" stop-color="#F4F6FA"/><stop offset="0.104839" stop-color="#F4F6FA"/><stop offset="0.112903" stop-color="#F4F5F9"/><stop offset="0.120968" stop-color="#F3F5F9"/><stop offset="0.129032" stop-color="#F3F5F9"/><stop offset="0.137097" stop-color="#F3F5F8"/><stop offset="0.145161" stop-color="#F2F4F8"/><stop offset="0.153226" stop-color="#F2F4F8"/><stop offset="0.16129" stop-color="#F2F4F7"/><stop offset="0.169355" stop-color="#F1F3F7"/><stop offset="0.177419" stop-color="#F1F3F7"/><stop offset="0.185484" stop-color="#F0F2F6"/><stop offset="0.193548" stop-color="#F0F2F6"/><stop offset="0.201613" stop-color="#F0F1F5"/><stop offset="0.209677" stop-color="#EFF1F5"/><stop offset="0.217742" stop-color="#EFF1F4"/><stop offset="0.225806" stop-color="#EEF0F4"/><stop offset="0.233871" stop-color="#EEF0F3"/><stop offset="0.241935" stop-color="#EDEFF3"/><stop offset="0.25" stop-color="#EDEFF2"/><stop offset="0.258065" stop-color="#ECEEF2"/><stop offset="0.266129" stop-color="#ECEDF1"/><stop offset="0.274194" stop-color="#EBEDF0"/><stop offset="0.282258" stop-color="#EAECF0"/><stop offset="0.290323" stop-color="#EAECEF"/><stop offset="0.298387" stop-color="#E9EBEF"/><stop offset="0.306452" stop-color="#E9EAEE"/><stop offset="0.314516" stop-color="#E8EAED"/><stop offset="0.322581" stop-color="#E7E9ED"/><stop offset="0.330645" stop-color="#E7E8EC"/><stop offset="0.33871" stop-color="#E6E8EB"/><stop offset="0.346774" stop-color="#E5E7EA"/><stop offset="0.354839" stop-color="#E4E6EA"/><stop offset="0.362903" stop-color="#E4E5E9"/><stop offset="0.370968" stop-color="#E3E5E8"/><stop offset="0.379032" stop-color="#E2E4E7"/><stop offset="0.387097" stop-color="#E1E3E6"/><stop offset="0.395161" stop-color="#E1E2E6"/><stop offset="0.403226" stop-color="#E0E1E5"/><stop offset="0.41129" stop-color="#DFE1E4"/><stop offset="0.419355" stop-color="#DEE0E3"/><stop offset="0.427419" stop-color="#DDDFE2"/><stop offset="0.435484" stop-color="#DCDEE1"/><stop offset="0.443548" stop-color="#DCDDE0"/><stop offset="0.451613" stop-color="#DBDCDF"/><stop offset="0.459677" stop-color="#DADBDE"/><stop offset="0.467742" stop-color="#D9DADD"/><stop offset="0.475806" stop-color="#D8D9DC"/><stop offset="0.483871" stop-color="#D7D8DB"/><stop offset="0.491935" stop-color="#D6D8DA"/><stop offset="0.5" stop-color="#D5D7D9"/><stop offset="0.508065" stop-color="#D4D6D8"/><stop offset="0.516129" stop-color="#D3D4D7"/><stop offset="0.524194" stop-color="#D2D3D6"/><stop offset="0.532258" stop-color="#D1D2D5"/><stop offset="0.540323" stop-color="#D0D1D4"/><stop offset="0.548387" stop-color="#CFD0D3"/><stop offset="0.556452" stop-color="#CECFD2"/><stop offset="0.564516" stop-color="#CDCED1"/><stop offset="0.572581" stop-color="#CCCDD0"/><stop offset="0.580645" stop-color="#CBCCCE"/><stop offset="0.58871" stop-color="#C9CBCD"/><stop offset="0.596774" stop-color="#C8CACC"/><stop offset="0.604839" stop-color="#C7C8CB"/><stop offset="0.612903" stop-color="#C6C7CA"/><stop offset="0.620968" stop-color="#C5C6C8"/><stop offset="0.629032" stop-color="#C4C5C7"/><stop offset="0.637097" stop-color="#C2C4C6"/><stop offset="0.645161" stop-color="#C1C2C5"/><stop offset="0.653226" stop-color="#C0C1C3"/><stop offset="0.66129" stop-color="#BFC0C2"/><stop offset="0.669355" stop-color="#BDBEC1"/><stop offset="0.677419" stop-color="#BCBDBF"/><stop offset="0.685484" stop-color="#BBBCBE"/><stop offset="0.693548" stop-color="#BABBBD"/><stop offset="0.701613" stop-color="#B8B9BB"/><stop offset="0.709677" stop-color="#B7B8BA"/><stop offset="0.717742" stop-color="#B6B7B8"/><stop offset="0.725806" stop-color="#B4B5B7"/><stop offset="0.733871" stop-color="#B3B4B6"/><stop offset="0.741935" stop-color="#B2B2B4"/><stop offset="0.75" stop-color="#B0B1B3"/><stop offset="0.758065" stop-color="#AFB0B1"/><stop offset="0.766129" stop-color="#ADAEB0"/><stop offset="0.774194" stop-color="#ACADAE"/><stop offset="0.782258" stop-color="#AAABAD"/><stop offset="0.790323" stop-color="#A9AAAB"/><stop offset="0.798387" stop-color="#A7A8AA"/><stop offset="0.806452" stop-color="#A6A7A8"/><stop offset="0.814516" stop-color="#A5A5A6"/><stop offset="0.822581" stop-color="#A3A4A5"/><stop offset="0.830645" stop-color="#A1A2A3"/><stop offset="0.83871" stop-color="#A0A0A2"/><stop offset="0.846774" stop-color="#9E9FA0"/><stop offset="0.854839" stop-color="#9D9D9E"/><stop offset="0.862903" stop-color="#9B9C9D"/><stop offset="0.870968" stop-color="#9A9A9B"/><stop offset="0.879032" stop-color="#989899"/><stop offset="0.887097" stop-color="#969798"/><stop offset="0.895161" stop-color="#959596"/><stop offset="0.903226" stop-color="#939494"/><stop offset="0.91129" stop-color="#929292"/><stop offset="0.919355" stop-color="#909091"/><stop offset="0.927419" stop-color="#8E8E8F"/><stop offset="0.935484" stop-color="#8C8D8D"/><stop offset="0.943548" stop-color="#8B8B8B"/><stop offset="0.951613" stop-color="#89898A"/><stop offset="0.959677" stop-color="#878788"/><stop offset="0.967742" stop-color="#868686"/><stop offset="0.975806" stop-color="#848484"/><stop offset="0.983871" stop-color="#828282"/><stop offset="0.991935" stop-color="#808080"/><stop offset="1" stop-color="#7F7F7F"/></linearGradient></defs><g clip-path="url(#clip0)" transform="translate(-285 -389)"><path d="M545.161 445.14C547.646 448.047 550.575 450.472 553.95 452.418 557.513 450.308 560.419 447.883 562.669 445.14ZM567.767 439.093C568.282 439.093 569.255 439.715 570.685 440.957 572.372 442.363 573.216 443.347 573.216 443.91 573.216 444.355 572.876 444.812 572.196 445.281 571.517 445.679 570.579 446.547 569.384 447.883 566.946 450.765 564.204 453.332 561.157 455.582 566.595 457.293 573.462 458.371 581.759 458.816 580.751 460.035 580.001 461.582 579.509 463.457 579.275 464.371 579.052 464.945 578.841 465.179 578.63 465.414 578.278 465.531 577.786 465.531 577.294 465.531 576.884 465.508 576.556 465.461 567.86 464.664 560.419 462.765 554.232 459.765 547.903 462.836 540.368 464.828 531.626 465.742 531.251 465.789 530.818 465.812 530.325 465.812 529.857 465.812 529.517 465.672 529.306 465.39 529.142 465.156 528.931 464.652 528.673 463.879 528.04 462.027 527.279 460.656 526.388 459.765 534.286 459.226 541.271 457.808 547.341 455.511 543.568 452.769 540.228 449.336 537.321 445.211L532.857 445.281C532.482 445.281 532.247 445.234 532.153 445.14 532.083 445.047 532.048 444.824 532.048 444.472L532.048 440.254C532.048 439.855 532.107 439.621 532.224 439.551 532.294 439.48 532.505 439.445 532.857 439.445L542.489 439.586 565.271 439.586C565.88 439.586 566.431 439.492 566.923 439.304 567.275 439.164 567.556 439.093 567.767 439.093ZM610.271 431.254 610.271 436.949 616.388 436.949 616.388 431.254ZM597.509 431.254 597.509 436.949 603.626 436.949 603.626 431.254ZM446.196 427.633 455.337 427.773 498.72 427.773 507.896 427.633C508.411 427.633 508.669 427.867 508.669 428.336L508.669 435.332C508.669 435.801 508.411 436.035 507.896 436.035L498.72 435.894 455.337 435.894 446.196 436.035C445.657 436.035 445.388 435.801 445.388 435.332L445.388 428.336C445.388 427.867 445.657 427.633 446.196 427.633ZM548.185 425.136 548.185 430.234 560.068 430.234 560.068 425.136ZM610.271 420.531 610.271 425.91 616.388 425.91 616.388 420.531ZM597.509 420.531 597.509 425.91 603.626 425.91 603.626 420.531ZM696.157 418.492C701.267 418.492 705.169 420.226 707.864 423.695 710.185 426.695 711.345 430.668 711.345 435.613 711.345 441.941 709.4 447.683 705.509 452.84 702.251 457.293 697.622 461.113 691.622 464.301 691.06 464.535 690.65 464.652 690.392 464.652 689.853 464.652 689.278 464.336 688.669 463.703 686.888 462.015 684.896 460.75 682.693 459.906 690.005 456.437 695.278 452.429 698.513 447.883 701.161 444.133 702.485 439.879 702.485 435.121 702.485 431.98 701.818 429.625 700.482 428.054 699.333 426.718 697.763 426.051 695.771 426.051 692.443 426.051 688.681 427.082 684.485 429.144 681.556 430.574 679.517 431.722 678.368 432.59 677.735 433.082 677.208 433.328 676.786 433.328 676.13 433.328 675.45 432.801 674.747 431.746 673.669 430.129 672.45 427.609 671.091 424.187 672.966 424 675.825 423.308 679.669 422.113 686.864 419.699 692.36 418.492 696.157 418.492ZM408.157 418.492C413.267 418.492 417.169 420.226 419.864 423.695 422.185 426.695 423.345 430.668 423.345 435.613 423.345 441.941 421.4 447.683 417.509 452.84 414.251 457.293 409.622 461.113 403.622 464.301 403.06 464.535 402.65 464.652 402.392 464.652 401.853 464.652 401.279 464.336 400.669 463.703 398.888 462.015 396.896 460.75 394.693 459.906 402.005 456.437 407.279 452.429 410.513 447.883 413.161 444.133 414.486 439.879 414.486 435.121 414.486 431.98 413.818 429.625 412.482 428.054 411.333 426.718 409.763 426.051 407.771 426.051 404.443 426.051 400.681 427.082 396.486 429.144 393.556 430.574 391.517 431.722 390.368 432.59 389.736 433.082 389.208 433.328 388.786 433.328 388.13 433.328 387.45 432.801 386.747 431.746 385.669 430.129 384.45 427.609 383.091 424.187 384.966 424 387.825 423.308 391.669 422.113 398.864 419.699 404.361 418.492 408.157 418.492ZM591.919 414.836 600.603 414.976 613.435 414.976 622.118 414.836C622.517 414.836 622.751 414.883 622.821 414.976 622.892 415.07 622.927 415.293 622.927 415.644L622.786 422.605 622.786 434.769 622.927 441.836C622.927 442.211 622.88 442.433 622.786 442.504 622.693 442.574 622.47 442.609 622.118 442.609L613.435 442.468 610.411 442.468 610.411 448.023 614.735 448.023 624.087 447.883C624.556 447.883 624.79 448.14 624.79 448.656L624.79 453.648C624.79 454.164 624.556 454.422 624.087 454.422L614.735 454.281 610.411 454.281 610.411 456.004 610.482 465.074C610.482 465.472 610.446 465.707 610.376 465.777 610.306 465.847 610.095 465.883 609.743 465.883L604.224 465.883C603.825 465.883 603.591 465.836 603.521 465.742 603.45 465.648 603.415 465.426 603.415 465.074L603.556 456.004 603.556 454.281 597.72 454.281 588.439 454.422C588.064 454.422 587.841 454.375 587.771 454.281 587.7 454.187 587.665 453.976 587.665 453.648L587.665 448.656C587.665 448.281 587.712 448.058 587.806 447.988 587.9 447.918 588.11 447.883 588.439 447.883L597.72 448.023 603.556 448.023 603.556 442.468 600.603 442.468 591.919 442.609C591.497 442.609 591.239 442.562 591.146 442.468 591.075 442.375 591.04 442.164 591.04 441.836L591.181 434.769 591.181 422.605 591.04 415.644C591.04 415.246 591.099 415.011 591.216 414.941 591.31 414.871 591.544 414.836 591.919 414.836ZM541.048 413.746C543.603 413.84 545.888 413.992 547.903 414.203 548.536 414.273 548.853 414.484 548.853 414.836 548.853 415.093 548.724 415.504 548.466 416.066 548.278 416.558 548.185 417.66 548.185 419.371L560.068 419.371C560.068 417.308 559.95 415.433 559.716 413.746 562.318 413.84 564.568 413.992 566.466 414.203 567.146 414.273 567.485 414.484 567.485 414.836 567.485 415 567.439 415.211 567.345 415.468 567.228 415.773 567.157 415.972 567.134 416.066 566.946 416.511 566.853 417.613 566.853 419.371L568.716 419.371 578.735 419.23C579.11 419.23 579.333 419.277 579.403 419.371 579.474 419.465 579.509 419.676 579.509 420.004L579.509 424.504C579.509 424.879 579.462 425.101 579.368 425.172 579.275 425.242 579.064 425.277 578.735 425.277L568.716 425.136 566.853 425.136 566.853 427.773 567.028 434.98C567.028 435.379 566.97 435.613 566.853 435.683 566.782 435.754 566.571 435.789 566.22 435.789L558.767 435.648 549.556 435.648 542.138 435.789C541.716 435.789 541.47 435.742 541.4 435.648 541.329 435.554 541.294 435.332 541.294 434.98L541.435 427.773 541.435 425.136 540.485 425.136 532.153 425.277C531.755 425.277 531.521 425.23 531.45 425.136 531.38 425.043 531.345 424.832 531.345 424.504L531.345 420.004C531.345 419.629 531.392 419.406 531.485 419.336 531.579 419.265 531.802 419.23 532.153 419.23L540.485 419.371 541.435 419.371C541.435 416.816 541.306 414.941 541.048 413.746ZM644.97 402.39C645.134 402.39 645.333 402.508 645.568 402.742 648.005 405.32 650.044 408.144 651.685 411.215 651.849 411.496 651.931 411.707 651.931 411.847 651.931 412.035 651.696 412.258 651.228 412.515L647.15 415.047C646.751 415.281 646.482 415.398 646.341 415.398 646.177 415.398 645.966 415.164 645.708 414.695 643.997 411.414 642.052 408.578 639.872 406.187 639.661 405.953 639.556 405.754 639.556 405.59 639.556 405.332 639.802 405.074 640.294 404.816L644.267 402.672C644.595 402.484 644.829 402.39 644.97 402.39ZM323.396 401.511C327.029 401.98 329.911 402.648 332.044 403.515 333.099 403.89 333.626 404.441 333.626 405.168 333.626 405.636 333.439 406.093 333.064 406.539 332.618 406.984 332.185 408.015 331.763 409.633 331.341 411.554 330.954 413.816 330.603 416.418 331.306 416.465 332.079 416.488 332.923 416.488 334.868 416.488 337.048 416.324 339.462 415.996 339.954 415.996 340.2 416.277 340.2 416.84 340.224 417.496 340.236 418.164 340.236 418.843 340.236 420.156 340.177 421.293 340.06 422.254 340.06 422.886 339.673 423.238 338.9 423.308 336.626 423.566 334.142 423.695 331.446 423.695 330.978 423.695 330.263 423.695 329.302 423.695 329.091 424.914 328.564 428.347 327.72 433.996 328.775 434.019 329.689 434.031 330.462 434.031 332.876 434.031 335.372 433.937 337.95 433.75 338.091 433.726 338.232 433.715 338.372 433.715 338.864 433.715 339.111 433.996 339.111 434.558 339.111 436.48 338.993 438.285 338.759 439.972 338.689 440.746 338.349 441.133 337.739 441.133 335.63 441.297 333.181 441.379 330.392 441.379 329.22 441.379 327.989 441.367 326.7 441.343 326.419 443.57 326.279 445.504 326.279 447.144 326.279 450.636 327.146 453.097 328.88 454.527 330.38 455.746 332.7 456.355 335.841 456.355 344.583 456.355 348.954 453.121 348.954 446.652 348.954 444.308 348.497 442.199 347.583 440.324 346.599 438.355 344.9 436.093 342.486 433.539 343.259 433.656 343.997 433.715 344.7 433.715 345.568 433.715 347.278 433.515 349.833 433.117 349.997 433.07 350.161 433.047 350.325 433.047 350.724 433.047 351.064 433.164 351.345 433.398 355.423 437.265 357.462 441.777 357.462 446.933 357.462 452.371 355.306 456.648 350.993 459.765 347.267 462.437 342.509 463.773 336.72 463.773 324.626 463.773 318.579 458.359 318.579 447.531 318.579 446.781 318.743 444.519 319.071 440.746 315.064 440.136 311.806 439.422 309.298 438.601 308.829 438.461 308.56 438.004 308.489 437.23 308.349 435.707 308.278 434.265 308.278 432.906 308.278 432.086 308.302 431.289 308.349 430.515 312.38 431.992 316.271 432.929 320.021 433.328 320.536 429.437 320.946 426.004 321.251 423.027 316.47 422.418 313.013 421.75 310.88 421.023 310.107 420.836 309.72 420.426 309.72 419.793 309.579 416.347 309.509 414.121 309.509 413.113 313.634 414.449 317.982 415.363 322.552 415.855 323.044 412.246 323.349 409.48 323.466 407.558 323.536 406.644 323.571 405.73 323.571 404.816 323.571 403.644 323.513 402.543 323.396 401.511ZM594.556 400.527C594.767 400.527 594.989 400.738 595.224 401.16 596.794 403.738 598.353 406.761 599.9 410.23 600.017 410.511 600.075 410.711 600.075 410.828 600.075 411.039 599.759 411.273 599.126 411.531L594.802 413.394C594.38 413.558 594.087 413.64 593.923 413.64 593.712 413.64 593.525 413.406 593.36 412.937 592.353 409.89 590.935 406.855 589.107 403.832 589.013 403.574 588.966 403.386 588.966 403.269 588.966 403.035 589.2 402.812 589.669 402.601L593.853 400.703C594.181 400.586 594.415 400.527 594.556 400.527ZM685.048 400.422C690.532 402.601 697.493 404.312 705.931 405.554 706.587 405.672 706.915 406.011 706.915 406.574 706.915 406.668 706.903 406.761 706.88 406.855 706.341 409.668 705.814 411.777 705.298 413.183 705.087 413.863 704.794 414.203 704.419 414.203 704.396 414.203 704.349 414.203 704.278 414.203 696.614 412.937 689.653 411.086 683.396 408.648 683.021 408.484 682.833 408.179 682.833 407.734 682.833 407.57 682.857 407.394 682.903 407.207 683.232 405.472 683.946 403.211 685.048 400.422ZM397.048 400.422C402.532 402.601 409.493 404.312 417.931 405.554 418.587 405.672 418.915 406.011 418.915 406.574 418.915 406.668 418.903 406.761 418.88 406.855 418.341 409.668 417.814 411.777 417.298 413.183 417.087 413.863 416.794 414.203 416.419 414.203 416.396 414.203 416.349 414.203 416.279 414.203 408.614 412.937 401.654 411.086 395.396 408.648 395.021 408.484 394.833 408.179 394.833 407.734 394.833 407.57 394.857 407.394 394.903 407.207 395.232 405.472 395.946 403.211 397.048 400.422ZM617.407 400.351C619.845 400.937 622.025 401.617 623.946 402.39 624.532 402.601 624.825 402.906 624.825 403.304 624.825 403.843 624.603 404.254 624.157 404.535 623.829 404.769 623.396 405.414 622.857 406.468 621.263 409.797 619.974 412.269 618.989 413.886 618.544 414.472 618.181 414.765 617.9 414.765 617.735 414.765 617.232 414.601 616.388 414.273 615.216 413.64 613.751 413.23 611.993 413.043 613.798 410.16 615.239 407.23 616.318 404.254 616.833 402.988 617.196 401.687 617.407 400.351ZM629.29 400.281C632.056 400.351 634.552 400.551 636.778 400.879 637.552 400.949 637.939 401.23 637.939 401.722 637.939 402.168 637.81 402.672 637.552 403.234 637.224 403.914 637.06 406.269 637.06 410.301 637.06 413.793 637.13 417.179 637.271 420.461L643.81 419.582C647.255 419.113 650.068 418.656 652.247 418.211 652.435 418.187 652.575 418.176 652.669 418.176 652.903 418.176 653.056 418.433 653.126 418.949L653.689 424.539C653.712 424.703 653.724 424.808 653.724 424.855 653.724 425.183 653.501 425.371 653.056 425.418 652.985 425.418 652.083 425.511 650.349 425.699 648.614 425.886 646.681 426.133 644.548 426.437L637.693 427.351C637.997 431.57 638.501 435.625 639.204 439.515 639.79 438.648 640.564 437.312 641.525 435.508 642.65 433.398 643.435 431.406 643.88 429.531 645.685 430.234 647.56 431.113 649.505 432.168 650.232 432.566 650.595 433 650.595 433.468 650.595 433.867 650.255 434.347 649.575 434.91 649.107 435.332 648.462 436.363 647.642 438.004 645.767 441.754 643.681 445.14 641.384 448.164 643.235 453.976 644.935 456.883 646.482 456.883 647.114 456.883 647.618 456.203 647.993 454.844 648.321 453.554 648.638 451.375 648.943 448.304 649.88 449.101 651.122 449.875 652.669 450.625 653.888 451.258 654.497 451.879 654.497 452.488 654.497 452.746 654.415 453.297 654.251 454.14 653.056 461.336 650.759 464.933 647.36 464.933 643.001 464.933 639.298 461.336 636.251 454.14 632.548 457.984 628.282 461.371 623.454 464.301 622.54 464.816 621.943 465.074 621.661 465.074 621.31 465.074 620.829 464.523 620.22 463.422 619.235 461.594 618.181 460.234 617.056 459.344 623.337 456.32 628.927 452.113 633.825 446.722 632.489 441.707 631.482 435.59 630.802 428.371L625.81 429.074C625.669 429.097 625.552 429.109 625.458 429.109 625.13 429.109 624.943 428.886 624.896 428.441L624.298 422.746C624.298 422.605 624.298 422.465 624.298 422.324 624.298 422.066 624.521 421.926 624.966 421.902L630.345 421.375C630.11 417.297 629.993 413.652 629.993 410.441 629.923 405.871 629.689 402.484 629.29 400.281ZM546.919 399.578C549.474 399.625 552.028 399.765 554.583 400 555.403 400.07 555.814 400.304 555.814 400.703 555.814 401.031 555.638 401.488 555.286 402.074 554.982 402.59 554.829 403.621 554.829 405.168L554.829 406.117 570.193 406.117 579.825 405.976C580.2 405.976 580.423 406.023 580.493 406.117 580.54 406.187 580.564 406.398 580.564 406.75L580.564 411.672C580.564 412.093 580.517 412.34 580.423 412.41 580.353 412.48 580.153 412.515 579.825 412.515L570.193 412.375 529.517 412.375 529.517 422.816C529.517 431.84 529.107 439.375 528.286 445.422 527.419 451.797 525.474 457.89 522.45 463.703 521.958 464.617 521.571 465.074 521.29 465.074 521.103 465.074 520.622 464.687 519.849 463.914 518.138 462.039 516.579 460.656 515.173 459.765 518.196 454.82 520.142 449.078 521.009 442.539 521.735 437.008 522.099 430 522.099 421.515L521.958 406.75C521.958 406.375 522.005 406.152 522.099 406.082 522.169 406.011 522.38 405.976 522.732 405.976L532.364 406.117 547.446 406.117 547.446 405.414C547.446 402.859 547.271 400.914 546.919 399.578ZM606.544 399.367C606.825 399.367 607.083 399.578 607.318 400 608.864 402.836 610.118 406 611.079 409.492 611.15 409.773 611.185 409.949 611.185 410.019 611.185 410.23 610.903 410.441 610.341 410.652L606.017 412.164C605.571 412.304 605.267 412.375 605.103 412.375 604.845 412.375 604.646 412.129 604.505 411.636 603.708 408.332 602.56 405.097 601.06 401.933 600.966 401.676 600.919 401.5 600.919 401.406 600.919 401.218 601.2 401.043 601.763 400.879L605.876 399.508C606.181 399.414 606.403 399.367 606.544 399.367Z" fill="url(#fill1)" fill-rule="evenodd"/><text fill="#000000" fill-opacity="0" font-family="Arial,Arial_MSFontService,sans-serif" font-size="66.5156" x="308.278" y="457.568">もう一度戦う</text></g></svg>